%TF.GenerationSoftware,KiCad,Pcbnew,(6.0.8)*%
%TF.CreationDate,2023-02-20T09:44:42-06:00*%
%TF.ProjectId,PumpTimerV2,50756d70-5469-46d6-9572-56322e6b6963,rev?*%
%TF.SameCoordinates,Original*%
%TF.FileFunction,AssemblyDrawing,Top*%
%FSLAX46Y46*%
G04 Gerber Fmt 4.6, Leading zero omitted, Abs format (unit mm)*
G04 Created by KiCad (PCBNEW (6.0.8)) date 2023-02-20 09:44:42*
%MOMM*%
%LPD*%
G01*
G04 APERTURE LIST*
%ADD10C,0.015000*%
%ADD11C,0.150000*%
%ADD12C,0.060000*%
%ADD13C,0.127000*%
%ADD14C,0.200000*%
%ADD15C,0.100000*%
G04 APERTURE END LIST*
D10*
%TO.C,K2*%
X84892899Y-100300320D02*
X84892899Y-99823837D01*
X85178788Y-100395616D02*
X84178174Y-100062078D01*
X85178788Y-99728540D01*
X85178788Y-99395002D02*
X84178174Y-99395002D01*
X84178174Y-99156761D01*
X84225823Y-99013816D01*
X84321119Y-98918520D01*
X84416416Y-98870871D01*
X84607009Y-98823223D01*
X84749954Y-98823223D01*
X84940547Y-98870871D01*
X85035843Y-98918520D01*
X85131140Y-99013816D01*
X85178788Y-99156761D01*
X85178788Y-99395002D01*
X84178174Y-98489685D02*
X85178788Y-98251444D01*
X84464064Y-98060850D01*
X85178788Y-97870257D01*
X84178174Y-97632016D01*
X85178788Y-96726698D02*
X85178788Y-97298478D01*
X85178788Y-97012588D02*
X84178174Y-97012588D01*
X84321119Y-97107885D01*
X84416416Y-97203181D01*
X84464064Y-97298478D01*
X84273471Y-96345512D02*
X84225823Y-96297864D01*
X84178174Y-96202567D01*
X84178174Y-95964326D01*
X84225823Y-95869029D01*
X84273471Y-95821381D01*
X84368767Y-95773733D01*
X84464064Y-95773733D01*
X84607009Y-95821381D01*
X85178788Y-96393160D01*
X85178788Y-95773733D01*
X84178174Y-95154305D02*
X84178174Y-95059008D01*
X84225823Y-94963712D01*
X84273471Y-94916064D01*
X84368767Y-94868415D01*
X84559361Y-94820767D01*
X84797602Y-94820767D01*
X84988195Y-94868415D01*
X85083492Y-94916064D01*
X85131140Y-94963712D01*
X85178788Y-95059008D01*
X85178788Y-95154305D01*
X85131140Y-95249602D01*
X85083492Y-95297250D01*
X84988195Y-95344898D01*
X84797602Y-95392546D01*
X84559361Y-95392546D01*
X84368767Y-95344898D01*
X84273471Y-95297250D01*
X84225823Y-95249602D01*
X84178174Y-95154305D01*
X84178174Y-93915450D02*
X84178174Y-94391932D01*
X84654657Y-94439581D01*
X84607009Y-94391932D01*
X84559361Y-94296636D01*
X84559361Y-94058394D01*
X84607009Y-93963098D01*
X84654657Y-93915450D01*
X84749954Y-93867801D01*
X84988195Y-93867801D01*
X85083492Y-93915450D01*
X85131140Y-93963098D01*
X85178788Y-94058394D01*
X85178788Y-94296636D01*
X85131140Y-94391932D01*
X85083492Y-94439581D01*
X85178788Y-93438967D02*
X84178174Y-93438967D01*
X84654657Y-93438967D02*
X84654657Y-92867187D01*
X85178788Y-92867187D02*
X84178174Y-92867187D01*
X85178788Y-91914222D02*
X85178788Y-92390704D01*
X84178174Y-92390704D01*
X84178174Y-91675980D02*
X85178788Y-91437739D01*
X84464064Y-91247146D01*
X85178788Y-91056552D01*
X84178174Y-90818311D01*
%TO.C,K1*%
X47892899Y-100300320D02*
X47892899Y-99823837D01*
X48178788Y-100395616D02*
X47178174Y-100062078D01*
X48178788Y-99728540D01*
X48178788Y-99395002D02*
X47178174Y-99395002D01*
X47178174Y-99156761D01*
X47225823Y-99013816D01*
X47321119Y-98918520D01*
X47416416Y-98870871D01*
X47607009Y-98823223D01*
X47749954Y-98823223D01*
X47940547Y-98870871D01*
X48035843Y-98918520D01*
X48131140Y-99013816D01*
X48178788Y-99156761D01*
X48178788Y-99395002D01*
X47178174Y-98489685D02*
X48178788Y-98251444D01*
X47464064Y-98060850D01*
X48178788Y-97870257D01*
X47178174Y-97632016D01*
X48178788Y-96726698D02*
X48178788Y-97298478D01*
X48178788Y-97012588D02*
X47178174Y-97012588D01*
X47321119Y-97107885D01*
X47416416Y-97203181D01*
X47464064Y-97298478D01*
X47273471Y-96345512D02*
X47225823Y-96297864D01*
X47178174Y-96202567D01*
X47178174Y-95964326D01*
X47225823Y-95869029D01*
X47273471Y-95821381D01*
X47368767Y-95773733D01*
X47464064Y-95773733D01*
X47607009Y-95821381D01*
X48178788Y-96393160D01*
X48178788Y-95773733D01*
X47178174Y-95154305D02*
X47178174Y-95059008D01*
X47225823Y-94963712D01*
X47273471Y-94916064D01*
X47368767Y-94868415D01*
X47559361Y-94820767D01*
X47797602Y-94820767D01*
X47988195Y-94868415D01*
X48083492Y-94916064D01*
X48131140Y-94963712D01*
X48178788Y-95059008D01*
X48178788Y-95154305D01*
X48131140Y-95249602D01*
X48083492Y-95297250D01*
X47988195Y-95344898D01*
X47797602Y-95392546D01*
X47559361Y-95392546D01*
X47368767Y-95344898D01*
X47273471Y-95297250D01*
X47225823Y-95249602D01*
X47178174Y-95154305D01*
X47178174Y-93915450D02*
X47178174Y-94391932D01*
X47654657Y-94439581D01*
X47607009Y-94391932D01*
X47559361Y-94296636D01*
X47559361Y-94058394D01*
X47607009Y-93963098D01*
X47654657Y-93915450D01*
X47749954Y-93867801D01*
X47988195Y-93867801D01*
X48083492Y-93915450D01*
X48131140Y-93963098D01*
X48178788Y-94058394D01*
X48178788Y-94296636D01*
X48131140Y-94391932D01*
X48083492Y-94439581D01*
X48178788Y-93438967D02*
X47178174Y-93438967D01*
X47654657Y-93438967D02*
X47654657Y-92867187D01*
X48178788Y-92867187D02*
X47178174Y-92867187D01*
X48178788Y-91914222D02*
X48178788Y-92390704D01*
X47178174Y-92390704D01*
X47178174Y-91675980D02*
X48178788Y-91437739D01*
X47464064Y-91247146D01*
X48178788Y-91056552D01*
X47178174Y-90818311D01*
%TO.C,J3*%
X76113095Y-110662619D02*
X76160714Y-110615000D01*
X76255952Y-110567380D01*
X76494047Y-110567380D01*
X76589285Y-110615000D01*
X76636904Y-110662619D01*
X76684523Y-110757857D01*
X76684523Y-110853095D01*
X76636904Y-110995952D01*
X76065476Y-111567380D01*
X76684523Y-111567380D01*
X77255952Y-110995952D02*
X77160714Y-110948333D01*
X77113095Y-110900714D01*
X77065476Y-110805476D01*
X77065476Y-110757857D01*
X77113095Y-110662619D01*
X77160714Y-110615000D01*
X77255952Y-110567380D01*
X77446428Y-110567380D01*
X77541666Y-110615000D01*
X77589285Y-110662619D01*
X77636904Y-110757857D01*
X77636904Y-110805476D01*
X77589285Y-110900714D01*
X77541666Y-110948333D01*
X77446428Y-110995952D01*
X77255952Y-110995952D01*
X77160714Y-111043571D01*
X77113095Y-111091190D01*
X77065476Y-111186428D01*
X77065476Y-111376904D01*
X77113095Y-111472142D01*
X77160714Y-111519761D01*
X77255952Y-111567380D01*
X77446428Y-111567380D01*
X77541666Y-111519761D01*
X77589285Y-111472142D01*
X77636904Y-111376904D01*
X77636904Y-111186428D01*
X77589285Y-111091190D01*
X77541666Y-111043571D01*
X77446428Y-110995952D01*
X78017857Y-110662619D02*
X78065476Y-110615000D01*
X78160714Y-110567380D01*
X78398809Y-110567380D01*
X78494047Y-110615000D01*
X78541666Y-110662619D01*
X78589285Y-110757857D01*
X78589285Y-110853095D01*
X78541666Y-110995952D01*
X77970238Y-111567380D01*
X78589285Y-111567380D01*
X79160714Y-110995952D02*
X79065476Y-110948333D01*
X79017857Y-110900714D01*
X78970238Y-110805476D01*
X78970238Y-110757857D01*
X79017857Y-110662619D01*
X79065476Y-110615000D01*
X79160714Y-110567380D01*
X79351190Y-110567380D01*
X79446428Y-110615000D01*
X79494047Y-110662619D01*
X79541666Y-110757857D01*
X79541666Y-110805476D01*
X79494047Y-110900714D01*
X79446428Y-110948333D01*
X79351190Y-110995952D01*
X79160714Y-110995952D01*
X79065476Y-111043571D01*
X79017857Y-111091190D01*
X78970238Y-111186428D01*
X78970238Y-111376904D01*
X79017857Y-111472142D01*
X79065476Y-111519761D01*
X79160714Y-111567380D01*
X79351190Y-111567380D01*
X79446428Y-111519761D01*
X79494047Y-111472142D01*
X79541666Y-111376904D01*
X79541666Y-111186428D01*
X79494047Y-111091190D01*
X79446428Y-111043571D01*
X79351190Y-110995952D01*
X80446428Y-110567380D02*
X79970238Y-110567380D01*
X79922619Y-111043571D01*
X79970238Y-110995952D01*
X80065476Y-110948333D01*
X80303571Y-110948333D01*
X80398809Y-110995952D01*
X80446428Y-111043571D01*
X80494047Y-111138809D01*
X80494047Y-111376904D01*
X80446428Y-111472142D01*
X80398809Y-111519761D01*
X80303571Y-111567380D01*
X80065476Y-111567380D01*
X79970238Y-111519761D01*
X79922619Y-111472142D01*
X81351190Y-110567380D02*
X81160714Y-110567380D01*
X81065476Y-110615000D01*
X81017857Y-110662619D01*
X80922619Y-110805476D01*
X80875000Y-110995952D01*
X80875000Y-111376904D01*
X80922619Y-111472142D01*
X80970238Y-111519761D01*
X81065476Y-111567380D01*
X81255952Y-111567380D01*
X81351190Y-111519761D01*
X81398809Y-111472142D01*
X81446428Y-111376904D01*
X81446428Y-111138809D01*
X81398809Y-111043571D01*
X81351190Y-110995952D01*
X81255952Y-110948333D01*
X81065476Y-110948333D01*
X80970238Y-110995952D01*
X80922619Y-111043571D01*
X80875000Y-111138809D01*
X81875000Y-111186428D02*
X82636904Y-111186428D01*
X83065476Y-110662619D02*
X83113095Y-110615000D01*
X83208333Y-110567380D01*
X83446428Y-110567380D01*
X83541666Y-110615000D01*
X83589285Y-110662619D01*
X83636904Y-110757857D01*
X83636904Y-110853095D01*
X83589285Y-110995952D01*
X83017857Y-111567380D01*
X83636904Y-111567380D01*
%TO.C,J2*%
X62223095Y-110662619D02*
X62270714Y-110615000D01*
X62365952Y-110567380D01*
X62604047Y-110567380D01*
X62699285Y-110615000D01*
X62746904Y-110662619D01*
X62794523Y-110757857D01*
X62794523Y-110853095D01*
X62746904Y-110995952D01*
X62175476Y-111567380D01*
X62794523Y-111567380D01*
X63365952Y-110995952D02*
X63270714Y-110948333D01*
X63223095Y-110900714D01*
X63175476Y-110805476D01*
X63175476Y-110757857D01*
X63223095Y-110662619D01*
X63270714Y-110615000D01*
X63365952Y-110567380D01*
X63556428Y-110567380D01*
X63651666Y-110615000D01*
X63699285Y-110662619D01*
X63746904Y-110757857D01*
X63746904Y-110805476D01*
X63699285Y-110900714D01*
X63651666Y-110948333D01*
X63556428Y-110995952D01*
X63365952Y-110995952D01*
X63270714Y-111043571D01*
X63223095Y-111091190D01*
X63175476Y-111186428D01*
X63175476Y-111376904D01*
X63223095Y-111472142D01*
X63270714Y-111519761D01*
X63365952Y-111567380D01*
X63556428Y-111567380D01*
X63651666Y-111519761D01*
X63699285Y-111472142D01*
X63746904Y-111376904D01*
X63746904Y-111186428D01*
X63699285Y-111091190D01*
X63651666Y-111043571D01*
X63556428Y-110995952D01*
X64127857Y-110662619D02*
X64175476Y-110615000D01*
X64270714Y-110567380D01*
X64508809Y-110567380D01*
X64604047Y-110615000D01*
X64651666Y-110662619D01*
X64699285Y-110757857D01*
X64699285Y-110853095D01*
X64651666Y-110995952D01*
X64080238Y-111567380D01*
X64699285Y-111567380D01*
X65270714Y-110995952D02*
X65175476Y-110948333D01*
X65127857Y-110900714D01*
X65080238Y-110805476D01*
X65080238Y-110757857D01*
X65127857Y-110662619D01*
X65175476Y-110615000D01*
X65270714Y-110567380D01*
X65461190Y-110567380D01*
X65556428Y-110615000D01*
X65604047Y-110662619D01*
X65651666Y-110757857D01*
X65651666Y-110805476D01*
X65604047Y-110900714D01*
X65556428Y-110948333D01*
X65461190Y-110995952D01*
X65270714Y-110995952D01*
X65175476Y-111043571D01*
X65127857Y-111091190D01*
X65080238Y-111186428D01*
X65080238Y-111376904D01*
X65127857Y-111472142D01*
X65175476Y-111519761D01*
X65270714Y-111567380D01*
X65461190Y-111567380D01*
X65556428Y-111519761D01*
X65604047Y-111472142D01*
X65651666Y-111376904D01*
X65651666Y-111186428D01*
X65604047Y-111091190D01*
X65556428Y-111043571D01*
X65461190Y-110995952D01*
X66556428Y-110567380D02*
X66080238Y-110567380D01*
X66032619Y-111043571D01*
X66080238Y-110995952D01*
X66175476Y-110948333D01*
X66413571Y-110948333D01*
X66508809Y-110995952D01*
X66556428Y-111043571D01*
X66604047Y-111138809D01*
X66604047Y-111376904D01*
X66556428Y-111472142D01*
X66508809Y-111519761D01*
X66413571Y-111567380D01*
X66175476Y-111567380D01*
X66080238Y-111519761D01*
X66032619Y-111472142D01*
X67461190Y-110567380D02*
X67270714Y-110567380D01*
X67175476Y-110615000D01*
X67127857Y-110662619D01*
X67032619Y-110805476D01*
X66985000Y-110995952D01*
X66985000Y-111376904D01*
X67032619Y-111472142D01*
X67080238Y-111519761D01*
X67175476Y-111567380D01*
X67365952Y-111567380D01*
X67461190Y-111519761D01*
X67508809Y-111472142D01*
X67556428Y-111376904D01*
X67556428Y-111138809D01*
X67508809Y-111043571D01*
X67461190Y-110995952D01*
X67365952Y-110948333D01*
X67175476Y-110948333D01*
X67080238Y-110995952D01*
X67032619Y-111043571D01*
X66985000Y-111138809D01*
X67985000Y-111186428D02*
X68746904Y-111186428D01*
X69175476Y-110662619D02*
X69223095Y-110615000D01*
X69318333Y-110567380D01*
X69556428Y-110567380D01*
X69651666Y-110615000D01*
X69699285Y-110662619D01*
X69746904Y-110757857D01*
X69746904Y-110853095D01*
X69699285Y-110995952D01*
X69127857Y-111567380D01*
X69746904Y-111567380D01*
D11*
%TO.C,U2*%
X96075771Y-83972580D02*
X96647200Y-83972580D01*
X96361485Y-84972580D02*
X96361485Y-83972580D01*
X97551961Y-84877342D02*
X97504342Y-84924961D01*
X97361485Y-84972580D01*
X97266247Y-84972580D01*
X97123390Y-84924961D01*
X97028152Y-84829723D01*
X96980533Y-84734485D01*
X96932914Y-84544009D01*
X96932914Y-84401152D01*
X96980533Y-84210676D01*
X97028152Y-84115438D01*
X97123390Y-84020200D01*
X97266247Y-83972580D01*
X97361485Y-83972580D01*
X97504342Y-84020200D01*
X97551961Y-84067819D01*
X97980533Y-84972580D02*
X97980533Y-83972580D01*
X98551961Y-84972580D01*
X98551961Y-83972580D01*
X98932914Y-83972580D02*
X99599580Y-83972580D01*
X99171009Y-84972580D01*
X100456723Y-83972580D02*
X99980533Y-83972580D01*
X99932914Y-84448771D01*
X99980533Y-84401152D01*
X100075771Y-84353533D01*
X100313866Y-84353533D01*
X100409104Y-84401152D01*
X100456723Y-84448771D01*
X100504342Y-84544009D01*
X100504342Y-84782104D01*
X100456723Y-84877342D01*
X100409104Y-84924961D01*
X100313866Y-84972580D01*
X100075771Y-84972580D01*
X99980533Y-84924961D01*
X99932914Y-84877342D01*
X100885295Y-84686866D02*
X101361485Y-84686866D01*
X100790057Y-84972580D02*
X101123390Y-83972580D01*
X101456723Y-84972580D01*
X101647200Y-83972580D02*
X101980533Y-84972580D01*
X102313866Y-83972580D01*
X102837676Y-83972580D02*
X103028152Y-83972580D01*
X103123390Y-84020200D01*
X103218628Y-84115438D01*
X103266247Y-84305914D01*
X103266247Y-84639247D01*
X103218628Y-84829723D01*
X103123390Y-84924961D01*
X103028152Y-84972580D01*
X102837676Y-84972580D01*
X102742438Y-84924961D01*
X102647200Y-84829723D01*
X102599580Y-84639247D01*
X102599580Y-84305914D01*
X102647200Y-84115438D01*
X102742438Y-84020200D01*
X102837676Y-83972580D01*
X103647200Y-84686866D02*
X104123390Y-84686866D01*
X103551961Y-84972580D02*
X103885295Y-83972580D01*
X104218628Y-84972580D01*
X99400533Y-80583533D02*
X99400533Y-81376866D01*
X99447200Y-81470200D01*
X99493866Y-81516866D01*
X99587200Y-81563533D01*
X99773866Y-81563533D01*
X99867200Y-81516866D01*
X99913866Y-81470200D01*
X99960533Y-81376866D01*
X99960533Y-80583533D01*
X100380533Y-80676866D02*
X100427200Y-80630200D01*
X100520533Y-80583533D01*
X100753866Y-80583533D01*
X100847200Y-80630200D01*
X100893866Y-80676866D01*
X100940533Y-80770200D01*
X100940533Y-80863533D01*
X100893866Y-81003533D01*
X100333866Y-81563533D01*
X100940533Y-81563533D01*
%TO.C,SW1*%
X44995238Y-77352380D02*
X45566666Y-77352380D01*
X45280952Y-78352380D02*
X45280952Y-77352380D01*
X46376190Y-78352380D02*
X45900000Y-78352380D01*
X45900000Y-77352380D01*
X46614285Y-77352380D02*
X47233333Y-77352380D01*
X46900000Y-77733333D01*
X47042857Y-77733333D01*
X47138095Y-77780952D01*
X47185714Y-77828571D01*
X47233333Y-77923809D01*
X47233333Y-78161904D01*
X47185714Y-78257142D01*
X47138095Y-78304761D01*
X47042857Y-78352380D01*
X46757142Y-78352380D01*
X46661904Y-78304761D01*
X46614285Y-78257142D01*
X47566666Y-77352380D02*
X48185714Y-77352380D01*
X47852380Y-77733333D01*
X47995238Y-77733333D01*
X48090476Y-77780952D01*
X48138095Y-77828571D01*
X48185714Y-77923809D01*
X48185714Y-78161904D01*
X48138095Y-78257142D01*
X48090476Y-78304761D01*
X47995238Y-78352380D01*
X47709523Y-78352380D01*
X47614285Y-78304761D01*
X47566666Y-78257142D01*
X48804761Y-77352380D02*
X48900000Y-77352380D01*
X48995238Y-77400000D01*
X49042857Y-77447619D01*
X49090476Y-77542857D01*
X49138095Y-77733333D01*
X49138095Y-77971428D01*
X49090476Y-78161904D01*
X49042857Y-78257142D01*
X48995238Y-78304761D01*
X48900000Y-78352380D01*
X48804761Y-78352380D01*
X48709523Y-78304761D01*
X48661904Y-78257142D01*
X48614285Y-78161904D01*
X48566666Y-77971428D01*
X48566666Y-77733333D01*
X48614285Y-77542857D01*
X48661904Y-77447619D01*
X48709523Y-77400000D01*
X48804761Y-77352380D01*
X50042857Y-77352380D02*
X49566666Y-77352380D01*
X49519047Y-77828571D01*
X49566666Y-77780952D01*
X49661904Y-77733333D01*
X49900000Y-77733333D01*
X49995238Y-77780952D01*
X50042857Y-77828571D01*
X50090476Y-77923809D01*
X50090476Y-78161904D01*
X50042857Y-78257142D01*
X49995238Y-78304761D01*
X49900000Y-78352380D01*
X49661904Y-78352380D01*
X49566666Y-78304761D01*
X49519047Y-78257142D01*
X50471428Y-78066666D02*
X50947619Y-78066666D01*
X50376190Y-78352380D02*
X50709523Y-77352380D01*
X51042857Y-78352380D01*
X51709523Y-77828571D02*
X51376190Y-77828571D01*
X51376190Y-78352380D02*
X51376190Y-77352380D01*
X51852380Y-77352380D01*
X52757142Y-78352380D02*
X52185714Y-78352380D01*
X52471428Y-78352380D02*
X52471428Y-77352380D01*
X52376190Y-77495238D01*
X52280952Y-77590476D01*
X52185714Y-77638095D01*
X53614285Y-77352380D02*
X53423809Y-77352380D01*
X53328571Y-77400000D01*
X53280952Y-77447619D01*
X53185714Y-77590476D01*
X53138095Y-77780952D01*
X53138095Y-78161904D01*
X53185714Y-78257142D01*
X53233333Y-78304761D01*
X53328571Y-78352380D01*
X53519047Y-78352380D01*
X53614285Y-78304761D01*
X53661904Y-78257142D01*
X53709523Y-78161904D01*
X53709523Y-77923809D01*
X53661904Y-77828571D01*
X53614285Y-77780952D01*
X53519047Y-77733333D01*
X53328571Y-77733333D01*
X53233333Y-77780952D01*
X53185714Y-77828571D01*
X53138095Y-77923809D01*
X54328571Y-77352380D02*
X54423809Y-77352380D01*
X54519047Y-77400000D01*
X54566666Y-77447619D01*
X54614285Y-77542857D01*
X54661904Y-77733333D01*
X54661904Y-77971428D01*
X54614285Y-78161904D01*
X54566666Y-78257142D01*
X54519047Y-78304761D01*
X54423809Y-78352380D01*
X54328571Y-78352380D01*
X54233333Y-78304761D01*
X54185714Y-78257142D01*
X54138095Y-78161904D01*
X54090476Y-77971428D01*
X54090476Y-77733333D01*
X54138095Y-77542857D01*
X54185714Y-77447619D01*
X54233333Y-77400000D01*
X54328571Y-77352380D01*
X55757142Y-78447619D02*
X55661904Y-78400000D01*
X55566666Y-78304761D01*
X55423809Y-78161904D01*
X55328571Y-78114285D01*
X55233333Y-78114285D01*
X55280952Y-78352380D02*
X55185714Y-78304761D01*
X55090476Y-78209523D01*
X55042857Y-78019047D01*
X55042857Y-77685714D01*
X55090476Y-77495238D01*
X55185714Y-77400000D01*
X55280952Y-77352380D01*
X55471428Y-77352380D01*
X55566666Y-77400000D01*
X55661904Y-77495238D01*
X55709523Y-77685714D01*
X55709523Y-78019047D01*
X55661904Y-78209523D01*
X55566666Y-78304761D01*
X55471428Y-78352380D01*
X55280952Y-78352380D01*
X56661904Y-77400000D02*
X56566666Y-77352380D01*
X56423809Y-77352380D01*
X56280952Y-77400000D01*
X56185714Y-77495238D01*
X56138095Y-77590476D01*
X56090476Y-77780952D01*
X56090476Y-77923809D01*
X56138095Y-78114285D01*
X56185714Y-78209523D01*
X56280952Y-78304761D01*
X56423809Y-78352380D01*
X56519047Y-78352380D01*
X56661904Y-78304761D01*
X56709523Y-78257142D01*
X56709523Y-77923809D01*
X56519047Y-77923809D01*
%TO.C,R14*%
X44782380Y-78385714D02*
X44782380Y-77766666D01*
X45163333Y-78100000D01*
X45163333Y-77957142D01*
X45210952Y-77861904D01*
X45258571Y-77814285D01*
X45353809Y-77766666D01*
X45591904Y-77766666D01*
X45687142Y-77814285D01*
X45734761Y-77861904D01*
X45782380Y-77957142D01*
X45782380Y-78242857D01*
X45734761Y-78338095D01*
X45687142Y-78385714D01*
X44782380Y-77433333D02*
X44782380Y-76814285D01*
X45163333Y-77147619D01*
X45163333Y-77004761D01*
X45210952Y-76909523D01*
X45258571Y-76861904D01*
X45353809Y-76814285D01*
X45591904Y-76814285D01*
X45687142Y-76861904D01*
X45734761Y-76909523D01*
X45782380Y-77004761D01*
X45782380Y-77290476D01*
X45734761Y-77385714D01*
X45687142Y-77433333D01*
X44782380Y-76195238D02*
X44782380Y-76100000D01*
X44830000Y-76004761D01*
X44877619Y-75957142D01*
X44972857Y-75909523D01*
X45163333Y-75861904D01*
X45401428Y-75861904D01*
X45591904Y-75909523D01*
X45687142Y-75957142D01*
X45734761Y-76004761D01*
X45782380Y-76100000D01*
X45782380Y-76195238D01*
X45734761Y-76290476D01*
X45687142Y-76338095D01*
X45591904Y-76385714D01*
X45401428Y-76433333D01*
X45163333Y-76433333D01*
X44972857Y-76385714D01*
X44877619Y-76338095D01*
X44830000Y-76290476D01*
X44782380Y-76195238D01*
D12*
X44080952Y-77357142D02*
X43890476Y-77490476D01*
X44080952Y-77585714D02*
X43680952Y-77585714D01*
X43680952Y-77433333D01*
X43700000Y-77395238D01*
X43719047Y-77376190D01*
X43757142Y-77357142D01*
X43814285Y-77357142D01*
X43852380Y-77376190D01*
X43871428Y-77395238D01*
X43890476Y-77433333D01*
X43890476Y-77585714D01*
X44080952Y-76976190D02*
X44080952Y-77204761D01*
X44080952Y-77090476D02*
X43680952Y-77090476D01*
X43738095Y-77128571D01*
X43776190Y-77166666D01*
X43795238Y-77204761D01*
X43814285Y-76633333D02*
X44080952Y-76633333D01*
X43661904Y-76728571D02*
X43947619Y-76823809D01*
X43947619Y-76576190D01*
D11*
%TO.C,D4*%
X47232380Y-79542857D02*
X47232380Y-80019047D01*
X46232380Y-80019047D01*
X46708571Y-79209523D02*
X46708571Y-78876190D01*
X47232380Y-78733333D02*
X47232380Y-79209523D01*
X46232380Y-79209523D01*
X46232380Y-78733333D01*
X47232380Y-78304761D02*
X46232380Y-78304761D01*
X46232380Y-78066666D01*
X46280000Y-77923809D01*
X46375238Y-77828571D01*
X46470476Y-77780952D01*
X46660952Y-77733333D01*
X46803809Y-77733333D01*
X46994285Y-77780952D01*
X47089523Y-77828571D01*
X47184761Y-77923809D01*
X47232380Y-78066666D01*
X47232380Y-78304761D01*
D12*
X45580952Y-79195238D02*
X45180952Y-79195238D01*
X45180952Y-79100000D01*
X45200000Y-79042857D01*
X45238095Y-79004761D01*
X45276190Y-78985714D01*
X45352380Y-78966666D01*
X45409523Y-78966666D01*
X45485714Y-78985714D01*
X45523809Y-79004761D01*
X45561904Y-79042857D01*
X45580952Y-79100000D01*
X45580952Y-79195238D01*
X45314285Y-78623809D02*
X45580952Y-78623809D01*
X45161904Y-78719047D02*
X45447619Y-78814285D01*
X45447619Y-78566666D01*
D10*
%TO.C,PS1*%
X65848333Y-68962333D02*
X65381666Y-68295666D01*
X65048333Y-68962333D02*
X65048333Y-67562333D01*
X65581666Y-67562333D01*
X65715000Y-67629000D01*
X65781666Y-67695666D01*
X65848333Y-67829000D01*
X65848333Y-68029000D01*
X65781666Y-68162333D01*
X65715000Y-68229000D01*
X65581666Y-68295666D01*
X65048333Y-68295666D01*
X66381666Y-68562333D02*
X67048333Y-68562333D01*
X66248333Y-68962333D02*
X66715000Y-67562333D01*
X67181666Y-68962333D01*
X68448333Y-68829000D02*
X68381666Y-68895666D01*
X68181666Y-68962333D01*
X68048333Y-68962333D01*
X67848333Y-68895666D01*
X67715000Y-68762333D01*
X67648333Y-68629000D01*
X67581666Y-68362333D01*
X67581666Y-68162333D01*
X67648333Y-67895666D01*
X67715000Y-67762333D01*
X67848333Y-67629000D01*
X68048333Y-67562333D01*
X68181666Y-67562333D01*
X68381666Y-67629000D01*
X68448333Y-67695666D01*
X69315000Y-67562333D02*
X69448333Y-67562333D01*
X69581666Y-67629000D01*
X69648333Y-67695666D01*
X69715000Y-67829000D01*
X69781666Y-68095666D01*
X69781666Y-68429000D01*
X69715000Y-68695666D01*
X69648333Y-68829000D01*
X69581666Y-68895666D01*
X69448333Y-68962333D01*
X69315000Y-68962333D01*
X69181666Y-68895666D01*
X69115000Y-68829000D01*
X69048333Y-68695666D01*
X68981666Y-68429000D01*
X68981666Y-68095666D01*
X69048333Y-67829000D01*
X69115000Y-67695666D01*
X69181666Y-67629000D01*
X69315000Y-67562333D01*
X70248333Y-67562333D02*
X71115000Y-67562333D01*
X70648333Y-68095666D01*
X70848333Y-68095666D01*
X70981666Y-68162333D01*
X71048333Y-68229000D01*
X71115000Y-68362333D01*
X71115000Y-68695666D01*
X71048333Y-68829000D01*
X70981666Y-68895666D01*
X70848333Y-68962333D01*
X70448333Y-68962333D01*
X70315000Y-68895666D01*
X70248333Y-68829000D01*
X71715000Y-68429000D02*
X72781666Y-68429000D01*
X73715000Y-67562333D02*
X73848333Y-67562333D01*
X73981666Y-67629000D01*
X74048333Y-67695666D01*
X74115000Y-67829000D01*
X74181666Y-68095666D01*
X74181666Y-68429000D01*
X74115000Y-68695666D01*
X74048333Y-68829000D01*
X73981666Y-68895666D01*
X73848333Y-68962333D01*
X73715000Y-68962333D01*
X73581666Y-68895666D01*
X73515000Y-68829000D01*
X73448333Y-68695666D01*
X73381666Y-68429000D01*
X73381666Y-68095666D01*
X73448333Y-67829000D01*
X73515000Y-67695666D01*
X73581666Y-67629000D01*
X73715000Y-67562333D01*
X75448333Y-67562333D02*
X74781666Y-67562333D01*
X74715000Y-68229000D01*
X74781666Y-68162333D01*
X74915000Y-68095666D01*
X75248333Y-68095666D01*
X75381666Y-68162333D01*
X75448333Y-68229000D01*
X75515000Y-68362333D01*
X75515000Y-68695666D01*
X75448333Y-68829000D01*
X75381666Y-68895666D01*
X75248333Y-68962333D01*
X74915000Y-68962333D01*
X74781666Y-68895666D01*
X74715000Y-68829000D01*
X76048333Y-68895666D02*
X76248333Y-68962333D01*
X76581666Y-68962333D01*
X76715000Y-68895666D01*
X76781666Y-68829000D01*
X76848333Y-68695666D01*
X76848333Y-68562333D01*
X76781666Y-68429000D01*
X76715000Y-68362333D01*
X76581666Y-68295666D01*
X76315000Y-68229000D01*
X76181666Y-68162333D01*
X76115000Y-68095666D01*
X76048333Y-67962333D01*
X76048333Y-67829000D01*
X76115000Y-67695666D01*
X76181666Y-67629000D01*
X76315000Y-67562333D01*
X76648333Y-67562333D01*
X76848333Y-67629000D01*
X77448333Y-68962333D02*
X77448333Y-67562333D01*
X78248333Y-68962333D02*
X77648333Y-68162333D01*
X78248333Y-67562333D02*
X77448333Y-68362333D01*
D11*
%TO.C,BT1*%
X107252380Y-100742857D02*
X107252380Y-101314285D01*
X107252380Y-101028571D02*
X106252380Y-101028571D01*
X106395238Y-101123809D01*
X106490476Y-101219047D01*
X106538095Y-101314285D01*
X106252380Y-99885714D02*
X106252380Y-100076190D01*
X106300000Y-100171428D01*
X106347619Y-100219047D01*
X106490476Y-100314285D01*
X106680952Y-100361904D01*
X107061904Y-100361904D01*
X107157142Y-100314285D01*
X107204761Y-100266666D01*
X107252380Y-100171428D01*
X107252380Y-99980952D01*
X107204761Y-99885714D01*
X107157142Y-99838095D01*
X107061904Y-99790476D01*
X106823809Y-99790476D01*
X106728571Y-99838095D01*
X106680952Y-99885714D01*
X106633333Y-99980952D01*
X106633333Y-100171428D01*
X106680952Y-100266666D01*
X106728571Y-100314285D01*
X106823809Y-100361904D01*
X106252380Y-99457142D02*
X106252380Y-98838095D01*
X106633333Y-99171428D01*
X106633333Y-99028571D01*
X106680952Y-98933333D01*
X106728571Y-98885714D01*
X106823809Y-98838095D01*
X107061904Y-98838095D01*
X107157142Y-98885714D01*
X107204761Y-98933333D01*
X107252380Y-99028571D01*
X107252380Y-99314285D01*
X107204761Y-99409523D01*
X107157142Y-99457142D01*
X106347619Y-98457142D02*
X106300000Y-98409523D01*
X106252380Y-98314285D01*
X106252380Y-98076190D01*
X106300000Y-97980952D01*
X106347619Y-97933333D01*
X106442857Y-97885714D01*
X106538095Y-97885714D01*
X106680952Y-97933333D01*
X107252380Y-98504761D01*
X107252380Y-97885714D01*
%TO.C,R13*%
X56720833Y-70717619D02*
X56768452Y-70670000D01*
X56863690Y-70622380D01*
X57101785Y-70622380D01*
X57197023Y-70670000D01*
X57244642Y-70717619D01*
X57292261Y-70812857D01*
X57292261Y-70908095D01*
X57244642Y-71050952D01*
X56673214Y-71622380D01*
X57292261Y-71622380D01*
X57720833Y-71622380D02*
X57720833Y-70622380D01*
X57816071Y-71241428D02*
X58101785Y-71622380D01*
X58101785Y-70955714D02*
X57720833Y-71336666D01*
X58482738Y-70717619D02*
X58530357Y-70670000D01*
X58625595Y-70622380D01*
X58863690Y-70622380D01*
X58958928Y-70670000D01*
X59006547Y-70717619D01*
X59054166Y-70812857D01*
X59054166Y-70908095D01*
X59006547Y-71050952D01*
X58435119Y-71622380D01*
X59054166Y-71622380D01*
D12*
X57630357Y-72980952D02*
X57497023Y-72790476D01*
X57401785Y-72980952D02*
X57401785Y-72580952D01*
X57554166Y-72580952D01*
X57592261Y-72600000D01*
X57611309Y-72619047D01*
X57630357Y-72657142D01*
X57630357Y-72714285D01*
X57611309Y-72752380D01*
X57592261Y-72771428D01*
X57554166Y-72790476D01*
X57401785Y-72790476D01*
X58011309Y-72980952D02*
X57782738Y-72980952D01*
X57897023Y-72980952D02*
X57897023Y-72580952D01*
X57858928Y-72638095D01*
X57820833Y-72676190D01*
X57782738Y-72695238D01*
X58144642Y-72580952D02*
X58392261Y-72580952D01*
X58258928Y-72733333D01*
X58316071Y-72733333D01*
X58354166Y-72752380D01*
X58373214Y-72771428D01*
X58392261Y-72809523D01*
X58392261Y-72904761D01*
X58373214Y-72942857D01*
X58354166Y-72961904D01*
X58316071Y-72980952D01*
X58201785Y-72980952D01*
X58163690Y-72961904D01*
X58144642Y-72942857D01*
D11*
%TO.C,H1*%
X96095238Y-69747619D02*
X96142857Y-69700000D01*
X96238095Y-69652380D01*
X96476190Y-69652380D01*
X96571428Y-69700000D01*
X96619047Y-69747619D01*
X96666666Y-69842857D01*
X96666666Y-69938095D01*
X96619047Y-70080952D01*
X96047619Y-70652380D01*
X96666666Y-70652380D01*
X97095238Y-70557142D02*
X97142857Y-70604761D01*
X97095238Y-70652380D01*
X97047619Y-70604761D01*
X97095238Y-70557142D01*
X97095238Y-70652380D01*
X97476190Y-69652380D02*
X98142857Y-69652380D01*
X97714285Y-70652380D01*
X99000000Y-69652380D02*
X98523809Y-69652380D01*
X98476190Y-70128571D01*
X98523809Y-70080952D01*
X98619047Y-70033333D01*
X98857142Y-70033333D01*
X98952380Y-70080952D01*
X99000000Y-70128571D01*
X99047619Y-70223809D01*
X99047619Y-70461904D01*
X99000000Y-70557142D01*
X98952380Y-70604761D01*
X98857142Y-70652380D01*
X98619047Y-70652380D01*
X98523809Y-70604761D01*
X98476190Y-70557142D01*
X99476190Y-70652380D02*
X99476190Y-69985714D01*
X99476190Y-70080952D02*
X99523809Y-70033333D01*
X99619047Y-69985714D01*
X99761904Y-69985714D01*
X99857142Y-70033333D01*
X99904761Y-70128571D01*
X99904761Y-70652380D01*
X99904761Y-70128571D02*
X99952380Y-70033333D01*
X100047619Y-69985714D01*
X100190476Y-69985714D01*
X100285714Y-70033333D01*
X100333333Y-70128571D01*
X100333333Y-70652380D01*
X100809523Y-70652380D02*
X100809523Y-69985714D01*
X100809523Y-70080952D02*
X100857142Y-70033333D01*
X100952380Y-69985714D01*
X101095238Y-69985714D01*
X101190476Y-70033333D01*
X101238095Y-70128571D01*
X101238095Y-70652380D01*
X101238095Y-70128571D02*
X101285714Y-70033333D01*
X101380952Y-69985714D01*
X101523809Y-69985714D01*
X101619047Y-70033333D01*
X101666666Y-70128571D01*
X101666666Y-70652380D01*
X102904761Y-70652380D02*
X102904761Y-69652380D01*
X103238095Y-70366666D01*
X103571428Y-69652380D01*
X103571428Y-70652380D01*
X104190476Y-70652380D02*
X104095238Y-70604761D01*
X104047619Y-70557142D01*
X104000000Y-70461904D01*
X104000000Y-70176190D01*
X104047619Y-70080952D01*
X104095238Y-70033333D01*
X104190476Y-69985714D01*
X104333333Y-69985714D01*
X104428571Y-70033333D01*
X104476190Y-70080952D01*
X104523809Y-70176190D01*
X104523809Y-70461904D01*
X104476190Y-70557142D01*
X104428571Y-70604761D01*
X104333333Y-70652380D01*
X104190476Y-70652380D01*
X105380952Y-69985714D02*
X105380952Y-70652380D01*
X104952380Y-69985714D02*
X104952380Y-70509523D01*
X105000000Y-70604761D01*
X105095238Y-70652380D01*
X105238095Y-70652380D01*
X105333333Y-70604761D01*
X105380952Y-70557142D01*
X105857142Y-69985714D02*
X105857142Y-70652380D01*
X105857142Y-70080952D02*
X105904761Y-70033333D01*
X106000000Y-69985714D01*
X106142857Y-69985714D01*
X106238095Y-70033333D01*
X106285714Y-70128571D01*
X106285714Y-70652380D01*
X106619047Y-69985714D02*
X107000000Y-69985714D01*
X106761904Y-69652380D02*
X106761904Y-70509523D01*
X106809523Y-70604761D01*
X106904761Y-70652380D01*
X107000000Y-70652380D01*
X101038095Y-66952380D02*
X101038095Y-65952380D01*
X101038095Y-66428571D02*
X101609523Y-66428571D01*
X101609523Y-66952380D02*
X101609523Y-65952380D01*
X102609523Y-66952380D02*
X102038095Y-66952380D01*
X102323809Y-66952380D02*
X102323809Y-65952380D01*
X102228571Y-66095238D01*
X102133333Y-66190476D01*
X102038095Y-66238095D01*
%TO.C,H2*%
X38095238Y-69747619D02*
X38142857Y-69700000D01*
X38238095Y-69652380D01*
X38476190Y-69652380D01*
X38571428Y-69700000D01*
X38619047Y-69747619D01*
X38666666Y-69842857D01*
X38666666Y-69938095D01*
X38619047Y-70080952D01*
X38047619Y-70652380D01*
X38666666Y-70652380D01*
X39095238Y-70557142D02*
X39142857Y-70604761D01*
X39095238Y-70652380D01*
X39047619Y-70604761D01*
X39095238Y-70557142D01*
X39095238Y-70652380D01*
X39476190Y-69652380D02*
X40142857Y-69652380D01*
X39714285Y-70652380D01*
X41000000Y-69652380D02*
X40523809Y-69652380D01*
X40476190Y-70128571D01*
X40523809Y-70080952D01*
X40619047Y-70033333D01*
X40857142Y-70033333D01*
X40952380Y-70080952D01*
X41000000Y-70128571D01*
X41047619Y-70223809D01*
X41047619Y-70461904D01*
X41000000Y-70557142D01*
X40952380Y-70604761D01*
X40857142Y-70652380D01*
X40619047Y-70652380D01*
X40523809Y-70604761D01*
X40476190Y-70557142D01*
X41476190Y-70652380D02*
X41476190Y-69985714D01*
X41476190Y-70080952D02*
X41523809Y-70033333D01*
X41619047Y-69985714D01*
X41761904Y-69985714D01*
X41857142Y-70033333D01*
X41904761Y-70128571D01*
X41904761Y-70652380D01*
X41904761Y-70128571D02*
X41952380Y-70033333D01*
X42047619Y-69985714D01*
X42190476Y-69985714D01*
X42285714Y-70033333D01*
X42333333Y-70128571D01*
X42333333Y-70652380D01*
X42809523Y-70652380D02*
X42809523Y-69985714D01*
X42809523Y-70080952D02*
X42857142Y-70033333D01*
X42952380Y-69985714D01*
X43095238Y-69985714D01*
X43190476Y-70033333D01*
X43238095Y-70128571D01*
X43238095Y-70652380D01*
X43238095Y-70128571D02*
X43285714Y-70033333D01*
X43380952Y-69985714D01*
X43523809Y-69985714D01*
X43619047Y-70033333D01*
X43666666Y-70128571D01*
X43666666Y-70652380D01*
X44904761Y-70652380D02*
X44904761Y-69652380D01*
X45238095Y-70366666D01*
X45571428Y-69652380D01*
X45571428Y-70652380D01*
X46190476Y-70652380D02*
X46095238Y-70604761D01*
X46047619Y-70557142D01*
X46000000Y-70461904D01*
X46000000Y-70176190D01*
X46047619Y-70080952D01*
X46095238Y-70033333D01*
X46190476Y-69985714D01*
X46333333Y-69985714D01*
X46428571Y-70033333D01*
X46476190Y-70080952D01*
X46523809Y-70176190D01*
X46523809Y-70461904D01*
X46476190Y-70557142D01*
X46428571Y-70604761D01*
X46333333Y-70652380D01*
X46190476Y-70652380D01*
X47380952Y-69985714D02*
X47380952Y-70652380D01*
X46952380Y-69985714D02*
X46952380Y-70509523D01*
X47000000Y-70604761D01*
X47095238Y-70652380D01*
X47238095Y-70652380D01*
X47333333Y-70604761D01*
X47380952Y-70557142D01*
X47857142Y-69985714D02*
X47857142Y-70652380D01*
X47857142Y-70080952D02*
X47904761Y-70033333D01*
X48000000Y-69985714D01*
X48142857Y-69985714D01*
X48238095Y-70033333D01*
X48285714Y-70128571D01*
X48285714Y-70652380D01*
X48619047Y-69985714D02*
X49000000Y-69985714D01*
X48761904Y-69652380D02*
X48761904Y-70509523D01*
X48809523Y-70604761D01*
X48904761Y-70652380D01*
X49000000Y-70652380D01*
X43038095Y-66952380D02*
X43038095Y-65952380D01*
X43038095Y-66428571D02*
X43609523Y-66428571D01*
X43609523Y-66952380D02*
X43609523Y-65952380D01*
X44038095Y-66047619D02*
X44085714Y-66000000D01*
X44180952Y-65952380D01*
X44419047Y-65952380D01*
X44514285Y-66000000D01*
X44561904Y-66047619D01*
X44609523Y-66142857D01*
X44609523Y-66238095D01*
X44561904Y-66380952D01*
X43990476Y-66952380D01*
X44609523Y-66952380D01*
%TO.C,H3*%
X39395238Y-110747619D02*
X39442857Y-110700000D01*
X39538095Y-110652380D01*
X39776190Y-110652380D01*
X39871428Y-110700000D01*
X39919047Y-110747619D01*
X39966666Y-110842857D01*
X39966666Y-110938095D01*
X39919047Y-111080952D01*
X39347619Y-111652380D01*
X39966666Y-111652380D01*
X40395238Y-111557142D02*
X40442857Y-111604761D01*
X40395238Y-111652380D01*
X40347619Y-111604761D01*
X40395238Y-111557142D01*
X40395238Y-111652380D01*
X40776190Y-110652380D02*
X41442857Y-110652380D01*
X41014285Y-111652380D01*
X42300000Y-110652380D02*
X41823809Y-110652380D01*
X41776190Y-111128571D01*
X41823809Y-111080952D01*
X41919047Y-111033333D01*
X42157142Y-111033333D01*
X42252380Y-111080952D01*
X42300000Y-111128571D01*
X42347619Y-111223809D01*
X42347619Y-111461904D01*
X42300000Y-111557142D01*
X42252380Y-111604761D01*
X42157142Y-111652380D01*
X41919047Y-111652380D01*
X41823809Y-111604761D01*
X41776190Y-111557142D01*
X42776190Y-111652380D02*
X42776190Y-110985714D01*
X42776190Y-111080952D02*
X42823809Y-111033333D01*
X42919047Y-110985714D01*
X43061904Y-110985714D01*
X43157142Y-111033333D01*
X43204761Y-111128571D01*
X43204761Y-111652380D01*
X43204761Y-111128571D02*
X43252380Y-111033333D01*
X43347619Y-110985714D01*
X43490476Y-110985714D01*
X43585714Y-111033333D01*
X43633333Y-111128571D01*
X43633333Y-111652380D01*
X44109523Y-111652380D02*
X44109523Y-110985714D01*
X44109523Y-111080952D02*
X44157142Y-111033333D01*
X44252380Y-110985714D01*
X44395238Y-110985714D01*
X44490476Y-111033333D01*
X44538095Y-111128571D01*
X44538095Y-111652380D01*
X44538095Y-111128571D02*
X44585714Y-111033333D01*
X44680952Y-110985714D01*
X44823809Y-110985714D01*
X44919047Y-111033333D01*
X44966666Y-111128571D01*
X44966666Y-111652380D01*
X46204761Y-111652380D02*
X46204761Y-110652380D01*
X46538095Y-111366666D01*
X46871428Y-110652380D01*
X46871428Y-111652380D01*
X47490476Y-111652380D02*
X47395238Y-111604761D01*
X47347619Y-111557142D01*
X47300000Y-111461904D01*
X47300000Y-111176190D01*
X47347619Y-111080952D01*
X47395238Y-111033333D01*
X47490476Y-110985714D01*
X47633333Y-110985714D01*
X47728571Y-111033333D01*
X47776190Y-111080952D01*
X47823809Y-111176190D01*
X47823809Y-111461904D01*
X47776190Y-111557142D01*
X47728571Y-111604761D01*
X47633333Y-111652380D01*
X47490476Y-111652380D01*
X48680952Y-110985714D02*
X48680952Y-111652380D01*
X48252380Y-110985714D02*
X48252380Y-111509523D01*
X48300000Y-111604761D01*
X48395238Y-111652380D01*
X48538095Y-111652380D01*
X48633333Y-111604761D01*
X48680952Y-111557142D01*
X49157142Y-110985714D02*
X49157142Y-111652380D01*
X49157142Y-111080952D02*
X49204761Y-111033333D01*
X49300000Y-110985714D01*
X49442857Y-110985714D01*
X49538095Y-111033333D01*
X49585714Y-111128571D01*
X49585714Y-111652380D01*
X49919047Y-110985714D02*
X50300000Y-110985714D01*
X50061904Y-110652380D02*
X50061904Y-111509523D01*
X50109523Y-111604761D01*
X50204761Y-111652380D01*
X50300000Y-111652380D01*
X44338095Y-107952380D02*
X44338095Y-106952380D01*
X44338095Y-107428571D02*
X44909523Y-107428571D01*
X44909523Y-107952380D02*
X44909523Y-106952380D01*
X45290476Y-106952380D02*
X45909523Y-106952380D01*
X45576190Y-107333333D01*
X45719047Y-107333333D01*
X45814285Y-107380952D01*
X45861904Y-107428571D01*
X45909523Y-107523809D01*
X45909523Y-107761904D01*
X45861904Y-107857142D01*
X45814285Y-107904761D01*
X45719047Y-107952380D01*
X45433333Y-107952380D01*
X45338095Y-107904761D01*
X45290476Y-107857142D01*
%TO.C,H4*%
X95595238Y-110747619D02*
X95642857Y-110700000D01*
X95738095Y-110652380D01*
X95976190Y-110652380D01*
X96071428Y-110700000D01*
X96119047Y-110747619D01*
X96166666Y-110842857D01*
X96166666Y-110938095D01*
X96119047Y-111080952D01*
X95547619Y-111652380D01*
X96166666Y-111652380D01*
X96595238Y-111557142D02*
X96642857Y-111604761D01*
X96595238Y-111652380D01*
X96547619Y-111604761D01*
X96595238Y-111557142D01*
X96595238Y-111652380D01*
X96976190Y-110652380D02*
X97642857Y-110652380D01*
X97214285Y-111652380D01*
X98500000Y-110652380D02*
X98023809Y-110652380D01*
X97976190Y-111128571D01*
X98023809Y-111080952D01*
X98119047Y-111033333D01*
X98357142Y-111033333D01*
X98452380Y-111080952D01*
X98500000Y-111128571D01*
X98547619Y-111223809D01*
X98547619Y-111461904D01*
X98500000Y-111557142D01*
X98452380Y-111604761D01*
X98357142Y-111652380D01*
X98119047Y-111652380D01*
X98023809Y-111604761D01*
X97976190Y-111557142D01*
X98976190Y-111652380D02*
X98976190Y-110985714D01*
X98976190Y-111080952D02*
X99023809Y-111033333D01*
X99119047Y-110985714D01*
X99261904Y-110985714D01*
X99357142Y-111033333D01*
X99404761Y-111128571D01*
X99404761Y-111652380D01*
X99404761Y-111128571D02*
X99452380Y-111033333D01*
X99547619Y-110985714D01*
X99690476Y-110985714D01*
X99785714Y-111033333D01*
X99833333Y-111128571D01*
X99833333Y-111652380D01*
X100309523Y-111652380D02*
X100309523Y-110985714D01*
X100309523Y-111080952D02*
X100357142Y-111033333D01*
X100452380Y-110985714D01*
X100595238Y-110985714D01*
X100690476Y-111033333D01*
X100738095Y-111128571D01*
X100738095Y-111652380D01*
X100738095Y-111128571D02*
X100785714Y-111033333D01*
X100880952Y-110985714D01*
X101023809Y-110985714D01*
X101119047Y-111033333D01*
X101166666Y-111128571D01*
X101166666Y-111652380D01*
X102404761Y-111652380D02*
X102404761Y-110652380D01*
X102738095Y-111366666D01*
X103071428Y-110652380D01*
X103071428Y-111652380D01*
X103690476Y-111652380D02*
X103595238Y-111604761D01*
X103547619Y-111557142D01*
X103500000Y-111461904D01*
X103500000Y-111176190D01*
X103547619Y-111080952D01*
X103595238Y-111033333D01*
X103690476Y-110985714D01*
X103833333Y-110985714D01*
X103928571Y-111033333D01*
X103976190Y-111080952D01*
X104023809Y-111176190D01*
X104023809Y-111461904D01*
X103976190Y-111557142D01*
X103928571Y-111604761D01*
X103833333Y-111652380D01*
X103690476Y-111652380D01*
X104880952Y-110985714D02*
X104880952Y-111652380D01*
X104452380Y-110985714D02*
X104452380Y-111509523D01*
X104500000Y-111604761D01*
X104595238Y-111652380D01*
X104738095Y-111652380D01*
X104833333Y-111604761D01*
X104880952Y-111557142D01*
X105357142Y-110985714D02*
X105357142Y-111652380D01*
X105357142Y-111080952D02*
X105404761Y-111033333D01*
X105500000Y-110985714D01*
X105642857Y-110985714D01*
X105738095Y-111033333D01*
X105785714Y-111128571D01*
X105785714Y-111652380D01*
X106119047Y-110985714D02*
X106500000Y-110985714D01*
X106261904Y-110652380D02*
X106261904Y-111509523D01*
X106309523Y-111604761D01*
X106404761Y-111652380D01*
X106500000Y-111652380D01*
X100538095Y-107952380D02*
X100538095Y-106952380D01*
X100538095Y-107428571D02*
X101109523Y-107428571D01*
X101109523Y-107952380D02*
X101109523Y-106952380D01*
X102014285Y-107285714D02*
X102014285Y-107952380D01*
X101776190Y-106904761D02*
X101538095Y-107619047D01*
X102157142Y-107619047D01*
%TO.C,C4*%
X55722380Y-78992857D02*
X55722380Y-79564285D01*
X55722380Y-79278571D02*
X54722380Y-79278571D01*
X54865238Y-79373809D01*
X54960476Y-79469047D01*
X55008095Y-79564285D01*
X54722380Y-78373809D02*
X54722380Y-78278571D01*
X54770000Y-78183333D01*
X54817619Y-78135714D01*
X54912857Y-78088095D01*
X55103333Y-78040476D01*
X55341428Y-78040476D01*
X55531904Y-78088095D01*
X55627142Y-78135714D01*
X55674761Y-78183333D01*
X55722380Y-78278571D01*
X55722380Y-78373809D01*
X55674761Y-78469047D01*
X55627142Y-78516666D01*
X55531904Y-78564285D01*
X55341428Y-78611904D01*
X55103333Y-78611904D01*
X54912857Y-78564285D01*
X54817619Y-78516666D01*
X54770000Y-78469047D01*
X54722380Y-78373809D01*
X55055714Y-77183333D02*
X55722380Y-77183333D01*
X55055714Y-77611904D02*
X55579523Y-77611904D01*
X55674761Y-77564285D01*
X55722380Y-77469047D01*
X55722380Y-77326190D01*
X55674761Y-77230952D01*
X55627142Y-77183333D01*
D12*
X56842857Y-78416666D02*
X56861904Y-78435714D01*
X56880952Y-78492857D01*
X56880952Y-78530952D01*
X56861904Y-78588095D01*
X56823809Y-78626190D01*
X56785714Y-78645238D01*
X56709523Y-78664285D01*
X56652380Y-78664285D01*
X56576190Y-78645238D01*
X56538095Y-78626190D01*
X56500000Y-78588095D01*
X56480952Y-78530952D01*
X56480952Y-78492857D01*
X56500000Y-78435714D01*
X56519047Y-78416666D01*
X56614285Y-78073809D02*
X56880952Y-78073809D01*
X56461904Y-78169047D02*
X56747619Y-78264285D01*
X56747619Y-78016666D01*
D11*
%TO.C,R6*%
X88739819Y-83480666D02*
X88692200Y-83433047D01*
X88644580Y-83337809D01*
X88644580Y-83099714D01*
X88692200Y-83004476D01*
X88739819Y-82956857D01*
X88835057Y-82909238D01*
X88930295Y-82909238D01*
X89073152Y-82956857D01*
X89644580Y-83528285D01*
X89644580Y-82909238D01*
X89644580Y-82480666D02*
X88644580Y-82480666D01*
X89263628Y-82385428D02*
X89644580Y-82099714D01*
X88977914Y-82099714D02*
X89358866Y-82480666D01*
X88739819Y-81718761D02*
X88692200Y-81671142D01*
X88644580Y-81575904D01*
X88644580Y-81337809D01*
X88692200Y-81242571D01*
X88739819Y-81194952D01*
X88835057Y-81147333D01*
X88930295Y-81147333D01*
X89073152Y-81194952D01*
X89644580Y-81766380D01*
X89644580Y-81147333D01*
D12*
X90803152Y-82380666D02*
X90612676Y-82514000D01*
X90803152Y-82609238D02*
X90403152Y-82609238D01*
X90403152Y-82456857D01*
X90422200Y-82418761D01*
X90441247Y-82399714D01*
X90479342Y-82380666D01*
X90536485Y-82380666D01*
X90574580Y-82399714D01*
X90593628Y-82418761D01*
X90612676Y-82456857D01*
X90612676Y-82609238D01*
X90403152Y-82037809D02*
X90403152Y-82114000D01*
X90422200Y-82152095D01*
X90441247Y-82171142D01*
X90498390Y-82209238D01*
X90574580Y-82228285D01*
X90726961Y-82228285D01*
X90765057Y-82209238D01*
X90784104Y-82190190D01*
X90803152Y-82152095D01*
X90803152Y-82075904D01*
X90784104Y-82037809D01*
X90765057Y-82018761D01*
X90726961Y-81999714D01*
X90631723Y-81999714D01*
X90593628Y-82018761D01*
X90574580Y-82037809D01*
X90555533Y-82075904D01*
X90555533Y-82152095D01*
X90574580Y-82190190D01*
X90593628Y-82209238D01*
X90631723Y-82228285D01*
D11*
%TO.C,R7*%
X101545933Y-74081619D02*
X101593552Y-74034000D01*
X101688790Y-73986380D01*
X101926885Y-73986380D01*
X102022123Y-74034000D01*
X102069742Y-74081619D01*
X102117361Y-74176857D01*
X102117361Y-74272095D01*
X102069742Y-74414952D01*
X101498314Y-74986380D01*
X102117361Y-74986380D01*
X102545933Y-74986380D02*
X102545933Y-73986380D01*
X102641171Y-74605428D02*
X102926885Y-74986380D01*
X102926885Y-74319714D02*
X102545933Y-74700666D01*
X103307838Y-74081619D02*
X103355457Y-74034000D01*
X103450695Y-73986380D01*
X103688790Y-73986380D01*
X103784028Y-74034000D01*
X103831647Y-74081619D01*
X103879266Y-74176857D01*
X103879266Y-74272095D01*
X103831647Y-74414952D01*
X103260219Y-74986380D01*
X103879266Y-74986380D01*
D12*
X102645933Y-76144952D02*
X102512600Y-75954476D01*
X102417361Y-76144952D02*
X102417361Y-75744952D01*
X102569742Y-75744952D01*
X102607838Y-75764000D01*
X102626885Y-75783047D01*
X102645933Y-75821142D01*
X102645933Y-75878285D01*
X102626885Y-75916380D01*
X102607838Y-75935428D01*
X102569742Y-75954476D01*
X102417361Y-75954476D01*
X102779266Y-75744952D02*
X103045933Y-75744952D01*
X102874504Y-76144952D01*
D13*
%TO.C,K2*%
X86000000Y-85000000D02*
X96000000Y-85000000D01*
X96000000Y-85000000D02*
X96000000Y-109000000D01*
X96000000Y-109000000D02*
X86000000Y-109000000D01*
X86000000Y-109000000D02*
X86000000Y-85000000D01*
%TO.C,K1*%
X49000000Y-85000000D02*
X59000000Y-85000000D01*
X59000000Y-85000000D02*
X59000000Y-109000000D01*
X59000000Y-109000000D02*
X49000000Y-109000000D01*
X49000000Y-109000000D02*
X49000000Y-85000000D01*
%TO.C,J3*%
X73890000Y-109500000D02*
X73890000Y-99500000D01*
X73890000Y-99500000D02*
X83890000Y-99500000D01*
X83890000Y-99500000D02*
X83890000Y-109500000D01*
X83890000Y-109500000D02*
X73890000Y-109500000D01*
D14*
X76490000Y-98900000D02*
G75*
G03*
X76490000Y-98900000I-100000J0D01*
G01*
D13*
%TO.C,J2*%
X60000000Y-109500000D02*
X60000000Y-99500000D01*
X60000000Y-99500000D02*
X70000000Y-99500000D01*
X70000000Y-99500000D02*
X70000000Y-109500000D01*
X70000000Y-109500000D02*
X60000000Y-109500000D01*
D14*
X62600000Y-98900000D02*
G75*
G03*
X62600000Y-98900000I-100000J0D01*
G01*
D15*
%TO.C,U2*%
X102097200Y-78670200D02*
X102097200Y-83570200D01*
X102097200Y-83570200D02*
X98197200Y-83570200D01*
X99172200Y-78670200D02*
X102097200Y-78670200D01*
X98197200Y-83570200D02*
X98197200Y-79645200D01*
X98197200Y-79645200D02*
X99172200Y-78670200D01*
%TO.C,R14*%
X43487500Y-76300000D02*
X44312500Y-76300000D01*
X44312500Y-77900000D02*
X43487500Y-77900000D01*
X44312500Y-76300000D02*
X44312500Y-77900000D01*
X43487500Y-77900000D02*
X43487500Y-76300000D01*
%TO.C,D4*%
X45800000Y-79700000D02*
X45800000Y-78100000D01*
X45000000Y-79400000D02*
X45300000Y-79700000D01*
X45300000Y-79700000D02*
X45800000Y-79700000D01*
X45000000Y-78100000D02*
X45000000Y-79400000D01*
X45800000Y-78100000D02*
X45000000Y-78100000D01*
D13*
%TO.C,PS1*%
X84250000Y-98250000D02*
X84250000Y-69750000D01*
X60750000Y-98250000D02*
X84250000Y-98250000D01*
X84250000Y-69750000D02*
X60750000Y-69750000D01*
X60750000Y-69750000D02*
X60750000Y-98250000D01*
D14*
X85660000Y-95390000D02*
G75*
G03*
X85660000Y-95390000I-100000J0D01*
G01*
D15*
%TO.C,R13*%
X58687500Y-72187500D02*
X58687500Y-73012500D01*
X57087500Y-73012500D02*
X57087500Y-72187500D01*
X57087500Y-72187500D02*
X58687500Y-72187500D01*
X58687500Y-73012500D02*
X57087500Y-73012500D01*
%TO.C,C4*%
X57100000Y-77550000D02*
X57100000Y-79150000D01*
X57100000Y-79150000D02*
X56300000Y-79150000D01*
X56300000Y-79150000D02*
X56300000Y-77550000D01*
X56300000Y-77550000D02*
X57100000Y-77550000D01*
%TO.C,R6*%
X90209700Y-81514000D02*
X91034700Y-81514000D01*
X91034700Y-83114000D02*
X90209700Y-83114000D01*
X91034700Y-81514000D02*
X91034700Y-83114000D01*
X90209700Y-83114000D02*
X90209700Y-81514000D01*
%TO.C,R7*%
X103512600Y-75551500D02*
X103512600Y-76376500D01*
X101912600Y-76376500D02*
X101912600Y-75551500D01*
X103512600Y-76376500D02*
X101912600Y-76376500D01*
X101912600Y-75551500D02*
X103512600Y-75551500D01*
%TD*%
M02*
