%TF.GenerationSoftware,KiCad,Pcbnew,(6.0.8)*%
%TF.CreationDate,2023-02-20T09:44:42-06:00*%
%TF.ProjectId,PumpTimerV2,50756d70-5469-46d6-9572-56322e6b6963,rev?*%
%TF.SameCoordinates,Original*%
%TF.FileFunction,Soldermask,Bot*%
%TF.FilePolarity,Negative*%
%FSLAX46Y46*%
G04 Gerber Fmt 4.6, Leading zero omitted, Abs format (unit mm)*
G04 Created by KiCad (PCBNEW (6.0.8)) date 2023-02-20 09:44:42*
%MOMM*%
%LPD*%
G01*
G04 APERTURE LIST*
G04 Aperture macros list*
%AMRoundRect*
0 Rectangle with rounded corners*
0 $1 Rounding radius*
0 $2 $3 $4 $5 $6 $7 $8 $9 X,Y pos of 4 corners*
0 Add a 4 corners polygon primitive as box body*
4,1,4,$2,$3,$4,$5,$6,$7,$8,$9,$2,$3,0*
0 Add four circle primitives for the rounded corners*
1,1,$1+$1,$2,$3*
1,1,$1+$1,$4,$5*
1,1,$1+$1,$6,$7*
1,1,$1+$1,$8,$9*
0 Add four rect primitives between the rounded corners*
20,1,$1+$1,$2,$3,$4,$5,0*
20,1,$1+$1,$4,$5,$6,$7,0*
20,1,$1+$1,$6,$7,$8,$9,0*
20,1,$1+$1,$8,$9,$2,$3,0*%
G04 Aperture macros list end*
%ADD10C,1.800000*%
%ADD11C,2.100000*%
%ADD12R,2.100000X2.100000*%
%ADD13R,1.200000X1.200000*%
%ADD14C,1.200000*%
%ADD15C,3.500000*%
%ADD16C,3.000000*%
%ADD17C,2.700000*%
%ADD18R,0.600000X0.450000*%
%ADD19R,0.800000X0.900000*%
%ADD20RoundRect,0.237500X-0.250000X-0.237500X0.250000X-0.237500X0.250000X0.237500X-0.250000X0.237500X0*%
%ADD21RoundRect,0.237500X0.250000X0.237500X-0.250000X0.237500X-0.250000X-0.237500X0.250000X-0.237500X0*%
%ADD22R,1.970000X0.610000*%
%ADD23R,1.700000X1.700000*%
%ADD24O,1.700000X1.700000*%
%ADD25RoundRect,0.249997X-0.412503X-0.650003X0.412503X-0.650003X0.412503X0.650003X-0.412503X0.650003X0*%
%ADD26RoundRect,0.237500X-0.237500X0.250000X-0.237500X-0.250000X0.237500X-0.250000X0.237500X0.250000X0*%
%ADD27R,0.450000X0.600000*%
%ADD28RoundRect,0.250000X-0.412500X-0.650000X0.412500X-0.650000X0.412500X0.650000X-0.412500X0.650000X0*%
G04 APERTURE END LIST*
D10*
%TO.C,K2*%
X87250000Y-86500000D03*
X94750000Y-86500000D03*
X87250000Y-107500000D03*
X91000000Y-86500000D03*
X94750000Y-104000000D03*
%TD*%
%TO.C,K1*%
X50250000Y-86500000D03*
X57750000Y-86500000D03*
X50250000Y-107500000D03*
X54000000Y-86500000D03*
X57750000Y-104000000D03*
%TD*%
D11*
%TO.C,J3*%
X81390000Y-104500000D03*
D12*
X76390000Y-104500000D03*
%TD*%
D11*
%TO.C,J2*%
X67500000Y-104500000D03*
D12*
X62500000Y-104500000D03*
%TD*%
D13*
%TO.C,PS1*%
X81390000Y-95390000D03*
D14*
X78850000Y-72530000D03*
X63610000Y-72530000D03*
X63610000Y-95390000D03*
%TD*%
D15*
%TO.C,BT1*%
X107300000Y-107300000D03*
X107300000Y-95200000D03*
D16*
X110800000Y-99600000D03*
X107300000Y-88900000D03*
%TD*%
D17*
%TO.C,H1*%
X101500000Y-66500000D03*
%TD*%
%TO.C,H2*%
X43500000Y-66500000D03*
%TD*%
%TO.C,H3*%
X44800000Y-107500000D03*
%TD*%
%TO.C,H4*%
X101000000Y-107500000D03*
%TD*%
D18*
%TO.C,D1*%
X51150000Y-84300000D03*
X53250000Y-84300000D03*
%TD*%
%TO.C,D2*%
X94050000Y-84600000D03*
X91950000Y-84600000D03*
%TD*%
D19*
%TO.C,Q1*%
X82850000Y-83900000D03*
X84750000Y-83900000D03*
X83800000Y-85900000D03*
%TD*%
%TO.C,Q2*%
X60850000Y-83900000D03*
X62750000Y-83900000D03*
X61800000Y-85900000D03*
%TD*%
D20*
%TO.C,R1*%
X79287500Y-83900000D03*
X81112500Y-83900000D03*
%TD*%
D21*
%TO.C,R3*%
X102939300Y-85819200D03*
X101114300Y-85819200D03*
%TD*%
%TO.C,R4*%
X102939300Y-84193600D03*
X101114300Y-84193600D03*
%TD*%
D22*
%TO.C,U1*%
X93900000Y-80800000D03*
X93900000Y-79530000D03*
X93900000Y-78260000D03*
X93900000Y-76990000D03*
X93900000Y-75720000D03*
X93900000Y-74450000D03*
X93900000Y-73180000D03*
X100830000Y-73180000D03*
X100830000Y-74450000D03*
X100830000Y-75720000D03*
X100830000Y-76990000D03*
X100830000Y-78260000D03*
X100830000Y-79530000D03*
X100830000Y-80800000D03*
%TD*%
D23*
%TO.C,J4*%
X96630000Y-67770000D03*
D24*
X96630000Y-65230000D03*
X94090000Y-67770000D03*
X94090000Y-65230000D03*
X91550000Y-67770000D03*
X91550000Y-65230000D03*
X89010000Y-67770000D03*
X89010000Y-65230000D03*
X86470000Y-67770000D03*
X86470000Y-65230000D03*
X83930000Y-67770000D03*
X83930000Y-65230000D03*
X81390000Y-67770000D03*
X81390000Y-65230000D03*
X78850000Y-67770000D03*
X78850000Y-65230000D03*
X76310000Y-67770000D03*
X76310000Y-65230000D03*
X73770000Y-67770000D03*
X73770000Y-65230000D03*
X71230000Y-67770000D03*
X71230000Y-65230000D03*
X68690000Y-67770000D03*
X68690000Y-65230000D03*
X66150000Y-67770000D03*
X66150000Y-65230000D03*
X63610000Y-67770000D03*
X63610000Y-65230000D03*
X61070000Y-67770000D03*
X61070000Y-65230000D03*
X58530000Y-67770000D03*
X58530000Y-65230000D03*
X55990000Y-67770000D03*
X55990000Y-65230000D03*
X53450000Y-67770000D03*
X53450000Y-65230000D03*
X50910000Y-67770000D03*
X50910000Y-65230000D03*
X48370000Y-67770000D03*
X48370000Y-65230000D03*
%TD*%
D25*
%TO.C,C1*%
X65737500Y-72700000D03*
X68862500Y-72700000D03*
%TD*%
D21*
%TO.C,R2*%
X62712500Y-79500000D03*
X60887500Y-79500000D03*
%TD*%
D26*
%TO.C,R5*%
X87599600Y-75991300D03*
X87599600Y-77816300D03*
%TD*%
D27*
%TO.C,D3*%
X97750000Y-86850000D03*
X97750000Y-84750000D03*
%TD*%
D28*
%TO.C,C3*%
X65737500Y-79100000D03*
X68862500Y-79100000D03*
%TD*%
%TO.C,C2*%
X65737500Y-75900000D03*
X68862500Y-75900000D03*
%TD*%
M02*
