%TF.GenerationSoftware,KiCad,Pcbnew,(6.0.8)*%
%TF.CreationDate,2023-02-20T09:44:42-06:00*%
%TF.ProjectId,PumpTimerV2,50756d70-5469-46d6-9572-56322e6b6963,rev?*%
%TF.SameCoordinates,Original*%
%TF.FileFunction,Paste,Bot*%
%TF.FilePolarity,Positive*%
%FSLAX46Y46*%
G04 Gerber Fmt 4.6, Leading zero omitted, Abs format (unit mm)*
G04 Created by KiCad (PCBNEW (6.0.8)) date 2023-02-20 09:44:42*
%MOMM*%
%LPD*%
G01*
G04 APERTURE LIST*
G04 Aperture macros list*
%AMRoundRect*
0 Rectangle with rounded corners*
0 $1 Rounding radius*
0 $2 $3 $4 $5 $6 $7 $8 $9 X,Y pos of 4 corners*
0 Add a 4 corners polygon primitive as box body*
4,1,4,$2,$3,$4,$5,$6,$7,$8,$9,$2,$3,0*
0 Add four circle primitives for the rounded corners*
1,1,$1+$1,$2,$3*
1,1,$1+$1,$4,$5*
1,1,$1+$1,$6,$7*
1,1,$1+$1,$8,$9*
0 Add four rect primitives between the rounded corners*
20,1,$1+$1,$2,$3,$4,$5,0*
20,1,$1+$1,$4,$5,$6,$7,0*
20,1,$1+$1,$6,$7,$8,$9,0*
20,1,$1+$1,$8,$9,$2,$3,0*%
G04 Aperture macros list end*
%ADD10R,0.600000X0.450000*%
%ADD11R,0.800000X0.900000*%
%ADD12RoundRect,0.237500X-0.250000X-0.237500X0.250000X-0.237500X0.250000X0.237500X-0.250000X0.237500X0*%
%ADD13RoundRect,0.237500X0.250000X0.237500X-0.250000X0.237500X-0.250000X-0.237500X0.250000X-0.237500X0*%
%ADD14R,1.970000X0.610000*%
%ADD15RoundRect,0.249997X-0.412503X-0.650003X0.412503X-0.650003X0.412503X0.650003X-0.412503X0.650003X0*%
%ADD16RoundRect,0.237500X-0.237500X0.250000X-0.237500X-0.250000X0.237500X-0.250000X0.237500X0.250000X0*%
%ADD17R,0.450000X0.600000*%
%ADD18RoundRect,0.250000X-0.412500X-0.650000X0.412500X-0.650000X0.412500X0.650000X-0.412500X0.650000X0*%
G04 APERTURE END LIST*
D10*
%TO.C,D1*%
X51150000Y-84300000D03*
X53250000Y-84300000D03*
%TD*%
%TO.C,D2*%
X94050000Y-84600000D03*
X91950000Y-84600000D03*
%TD*%
D11*
%TO.C,Q1*%
X82850000Y-83900000D03*
X84750000Y-83900000D03*
X83800000Y-85900000D03*
%TD*%
%TO.C,Q2*%
X60850000Y-83900000D03*
X62750000Y-83900000D03*
X61800000Y-85900000D03*
%TD*%
D12*
%TO.C,R1*%
X79287500Y-83900000D03*
X81112500Y-83900000D03*
%TD*%
D13*
%TO.C,R3*%
X102939300Y-85819200D03*
X101114300Y-85819200D03*
%TD*%
%TO.C,R4*%
X102939300Y-84193600D03*
X101114300Y-84193600D03*
%TD*%
D14*
%TO.C,U1*%
X93900000Y-80800000D03*
X93900000Y-79530000D03*
X93900000Y-78260000D03*
X93900000Y-76990000D03*
X93900000Y-75720000D03*
X93900000Y-74450000D03*
X93900000Y-73180000D03*
X100830000Y-73180000D03*
X100830000Y-74450000D03*
X100830000Y-75720000D03*
X100830000Y-76990000D03*
X100830000Y-78260000D03*
X100830000Y-79530000D03*
X100830000Y-80800000D03*
%TD*%
D15*
%TO.C,C1*%
X65737500Y-72700000D03*
X68862500Y-72700000D03*
%TD*%
D13*
%TO.C,R2*%
X62712500Y-79500000D03*
X60887500Y-79500000D03*
%TD*%
D16*
%TO.C,R5*%
X87599600Y-75991300D03*
X87599600Y-77816300D03*
%TD*%
D17*
%TO.C,D3*%
X97750000Y-86850000D03*
X97750000Y-84750000D03*
%TD*%
D18*
%TO.C,C3*%
X65737500Y-79100000D03*
X68862500Y-79100000D03*
%TD*%
%TO.C,C2*%
X65737500Y-75900000D03*
X68862500Y-75900000D03*
%TD*%
M02*
