%TF.GenerationSoftware,KiCad,Pcbnew,(6.0.8)*%
%TF.CreationDate,2023-02-20T09:44:42-06:00*%
%TF.ProjectId,PumpTimerV2,50756d70-5469-46d6-9572-56322e6b6963,rev?*%
%TF.SameCoordinates,Original*%
%TF.FileFunction,Soldermask,Top*%
%TF.FilePolarity,Negative*%
%FSLAX46Y46*%
G04 Gerber Fmt 4.6, Leading zero omitted, Abs format (unit mm)*
G04 Created by KiCad (PCBNEW (6.0.8)) date 2023-02-20 09:44:42*
%MOMM*%
%LPD*%
G01*
G04 APERTURE LIST*
G04 Aperture macros list*
%AMRoundRect*
0 Rectangle with rounded corners*
0 $1 Rounding radius*
0 $2 $3 $4 $5 $6 $7 $8 $9 X,Y pos of 4 corners*
0 Add a 4 corners polygon primitive as box body*
4,1,4,$2,$3,$4,$5,$6,$7,$8,$9,$2,$3,0*
0 Add four circle primitives for the rounded corners*
1,1,$1+$1,$2,$3*
1,1,$1+$1,$4,$5*
1,1,$1+$1,$6,$7*
1,1,$1+$1,$8,$9*
0 Add four rect primitives between the rounded corners*
20,1,$1+$1,$2,$3,$4,$5,0*
20,1,$1+$1,$4,$5,$6,$7,0*
20,1,$1+$1,$6,$7,$8,$9,0*
20,1,$1+$1,$8,$9,$2,$3,0*%
G04 Aperture macros list end*
%ADD10C,1.800000*%
%ADD11C,2.100000*%
%ADD12R,2.100000X2.100000*%
%ADD13RoundRect,0.150000X-0.825000X-0.150000X0.825000X-0.150000X0.825000X0.150000X-0.825000X0.150000X0*%
%ADD14R,1.600000X1.400000*%
%ADD15RoundRect,0.237500X0.237500X-0.250000X0.237500X0.250000X-0.237500X0.250000X-0.237500X-0.250000X0*%
%ADD16RoundRect,0.212500X0.212500X-0.400000X0.212500X0.400000X-0.212500X0.400000X-0.212500X-0.400000X0*%
%ADD17R,1.200000X1.200000*%
%ADD18C,1.200000*%
%ADD19C,3.500000*%
%ADD20C,3.000000*%
%ADD21RoundRect,0.237500X0.250000X0.237500X-0.250000X0.237500X-0.250000X-0.237500X0.250000X-0.237500X0*%
%ADD22C,2.700000*%
%ADD23RoundRect,0.237500X-0.237500X0.300000X-0.237500X-0.300000X0.237500X-0.300000X0.237500X0.300000X0*%
%ADD24RoundRect,0.237500X-0.237500X0.250000X-0.237500X-0.250000X0.237500X-0.250000X0.237500X0.250000X0*%
%ADD25R,1.700000X1.700000*%
%ADD26O,1.700000X1.700000*%
G04 APERTURE END LIST*
D10*
%TO.C,K2*%
X87250000Y-86500000D03*
X94750000Y-86500000D03*
X87250000Y-107500000D03*
X91000000Y-86500000D03*
X94750000Y-104000000D03*
%TD*%
%TO.C,K1*%
X50250000Y-86500000D03*
X57750000Y-86500000D03*
X50250000Y-107500000D03*
X54000000Y-86500000D03*
X57750000Y-104000000D03*
%TD*%
D11*
%TO.C,J3*%
X81390000Y-104500000D03*
D12*
X76390000Y-104500000D03*
%TD*%
D11*
%TO.C,J2*%
X67500000Y-104500000D03*
D12*
X62500000Y-104500000D03*
%TD*%
D13*
%TO.C,U2*%
X97672200Y-79215200D03*
X97672200Y-80485200D03*
X97672200Y-81755200D03*
X97672200Y-83025200D03*
X102622200Y-83025200D03*
X102622200Y-81755200D03*
X102622200Y-80485200D03*
X102622200Y-79215200D03*
%TD*%
D14*
%TO.C,SW1*%
X47300000Y-76900000D03*
X54500000Y-76900000D03*
X47300000Y-79900000D03*
X54500000Y-79900000D03*
%TD*%
D15*
%TO.C,R14*%
X43900000Y-78012500D03*
X43900000Y-76187500D03*
%TD*%
D16*
%TO.C,D4*%
X45400000Y-79712500D03*
X45400000Y-78087500D03*
%TD*%
D17*
%TO.C,PS1*%
X81390000Y-95390000D03*
D18*
X78850000Y-72530000D03*
X63610000Y-72530000D03*
X63610000Y-95390000D03*
%TD*%
D19*
%TO.C,BT1*%
X107300000Y-107300000D03*
X107300000Y-95200000D03*
D20*
X110800000Y-99600000D03*
X107300000Y-88900000D03*
%TD*%
D21*
%TO.C,R13*%
X58800000Y-72600000D03*
X56975000Y-72600000D03*
%TD*%
D22*
%TO.C,H1*%
X101500000Y-66500000D03*
%TD*%
%TO.C,H2*%
X43500000Y-66500000D03*
%TD*%
%TO.C,H3*%
X44800000Y-107500000D03*
%TD*%
%TO.C,H4*%
X101000000Y-107500000D03*
%TD*%
D23*
%TO.C,C4*%
X56700000Y-77487500D03*
X56700000Y-79212500D03*
%TD*%
D24*
%TO.C,R6*%
X90622200Y-81401500D03*
X90622200Y-83226500D03*
%TD*%
D21*
%TO.C,R7*%
X103625100Y-75964000D03*
X101800100Y-75964000D03*
%TD*%
D25*
%TO.C,J4*%
X96630000Y-67770000D03*
D26*
X96630000Y-65230000D03*
X94090000Y-67770000D03*
X94090000Y-65230000D03*
X91550000Y-67770000D03*
X91550000Y-65230000D03*
X89010000Y-67770000D03*
X89010000Y-65230000D03*
X86470000Y-67770000D03*
X86470000Y-65230000D03*
X83930000Y-67770000D03*
X83930000Y-65230000D03*
X81390000Y-67770000D03*
X81390000Y-65230000D03*
X78850000Y-67770000D03*
X78850000Y-65230000D03*
X76310000Y-67770000D03*
X76310000Y-65230000D03*
X73770000Y-67770000D03*
X73770000Y-65230000D03*
X71230000Y-67770000D03*
X71230000Y-65230000D03*
X68690000Y-67770000D03*
X68690000Y-65230000D03*
X66150000Y-67770000D03*
X66150000Y-65230000D03*
X63610000Y-67770000D03*
X63610000Y-65230000D03*
X61070000Y-67770000D03*
X61070000Y-65230000D03*
X58530000Y-67770000D03*
X58530000Y-65230000D03*
X55990000Y-67770000D03*
X55990000Y-65230000D03*
X53450000Y-67770000D03*
X53450000Y-65230000D03*
X50910000Y-67770000D03*
X50910000Y-65230000D03*
X48370000Y-67770000D03*
X48370000Y-65230000D03*
%TD*%
M02*
