%TF.GenerationSoftware,KiCad,Pcbnew,(6.0.8)*%
%TF.CreationDate,2023-02-20T09:44:42-06:00*%
%TF.ProjectId,PumpTimerV2,50756d70-5469-46d6-9572-56322e6b6963,rev?*%
%TF.SameCoordinates,Original*%
%TF.FileFunction,Copper,L4,Bot*%
%TF.FilePolarity,Positive*%
%FSLAX46Y46*%
G04 Gerber Fmt 4.6, Leading zero omitted, Abs format (unit mm)*
G04 Created by KiCad (PCBNEW (6.0.8)) date 2023-02-20 09:44:42*
%MOMM*%
%LPD*%
G01*
G04 APERTURE LIST*
G04 Aperture macros list*
%AMRoundRect*
0 Rectangle with rounded corners*
0 $1 Rounding radius*
0 $2 $3 $4 $5 $6 $7 $8 $9 X,Y pos of 4 corners*
0 Add a 4 corners polygon primitive as box body*
4,1,4,$2,$3,$4,$5,$6,$7,$8,$9,$2,$3,0*
0 Add four circle primitives for the rounded corners*
1,1,$1+$1,$2,$3*
1,1,$1+$1,$4,$5*
1,1,$1+$1,$6,$7*
1,1,$1+$1,$8,$9*
0 Add four rect primitives between the rounded corners*
20,1,$1+$1,$2,$3,$4,$5,0*
20,1,$1+$1,$4,$5,$6,$7,0*
20,1,$1+$1,$6,$7,$8,$9,0*
20,1,$1+$1,$8,$9,$2,$3,0*%
G04 Aperture macros list end*
%TA.AperFunction,ComponentPad*%
%ADD10C,1.800000*%
%TD*%
%TA.AperFunction,ComponentPad*%
%ADD11C,2.100000*%
%TD*%
%TA.AperFunction,ComponentPad*%
%ADD12R,2.100000X2.100000*%
%TD*%
%TA.AperFunction,ComponentPad*%
%ADD13R,1.200000X1.200000*%
%TD*%
%TA.AperFunction,ComponentPad*%
%ADD14C,1.200000*%
%TD*%
%TA.AperFunction,ComponentPad*%
%ADD15C,3.000000*%
%TD*%
%TA.AperFunction,SMDPad,CuDef*%
%ADD16R,0.600000X0.450000*%
%TD*%
%TA.AperFunction,SMDPad,CuDef*%
%ADD17R,0.800000X0.900000*%
%TD*%
%TA.AperFunction,SMDPad,CuDef*%
%ADD18RoundRect,0.237500X-0.250000X-0.237500X0.250000X-0.237500X0.250000X0.237500X-0.250000X0.237500X0*%
%TD*%
%TA.AperFunction,SMDPad,CuDef*%
%ADD19RoundRect,0.237500X0.250000X0.237500X-0.250000X0.237500X-0.250000X-0.237500X0.250000X-0.237500X0*%
%TD*%
%TA.AperFunction,SMDPad,CuDef*%
%ADD20R,1.970000X0.610000*%
%TD*%
%TA.AperFunction,ComponentPad*%
%ADD21R,1.700000X1.700000*%
%TD*%
%TA.AperFunction,ComponentPad*%
%ADD22O,1.700000X1.700000*%
%TD*%
%TA.AperFunction,SMDPad,CuDef*%
%ADD23RoundRect,0.249997X-0.412503X-0.650003X0.412503X-0.650003X0.412503X0.650003X-0.412503X0.650003X0*%
%TD*%
%TA.AperFunction,SMDPad,CuDef*%
%ADD24RoundRect,0.237500X-0.237500X0.250000X-0.237500X-0.250000X0.237500X-0.250000X0.237500X0.250000X0*%
%TD*%
%TA.AperFunction,SMDPad,CuDef*%
%ADD25R,0.450000X0.600000*%
%TD*%
%TA.AperFunction,SMDPad,CuDef*%
%ADD26RoundRect,0.250000X-0.412500X-0.650000X0.412500X-0.650000X0.412500X0.650000X-0.412500X0.650000X0*%
%TD*%
%TA.AperFunction,ViaPad*%
%ADD27C,0.800000*%
%TD*%
%TA.AperFunction,Conductor*%
%ADD28C,0.250000*%
%TD*%
%TA.AperFunction,Conductor*%
%ADD29C,0.400000*%
%TD*%
%TA.AperFunction,Conductor*%
%ADD30C,0.500000*%
%TD*%
G04 APERTURE END LIST*
D10*
%TO.P,K2,1*%
%TO.N,/Reset*%
X87250000Y-86500000D03*
%TO.P,K2,6*%
%TO.N,/Set*%
X94750000Y-86500000D03*
%TO.P,K2,3*%
%TO.N,/Line2_out*%
X87250000Y-107500000D03*
%TO.P,K2,7*%
%TO.N,+5VD*%
X91000000Y-86500000D03*
%TO.P,K2,5*%
%TO.N,/Line2_in*%
X94750000Y-104000000D03*
%TD*%
%TO.P,K1,1*%
%TO.N,/Reset*%
X50250000Y-86500000D03*
%TO.P,K1,6*%
%TO.N,/Set*%
X57750000Y-86500000D03*
%TO.P,K1,3*%
%TO.N,/Line1_out*%
X50250000Y-107500000D03*
%TO.P,K1,7*%
%TO.N,+5VD*%
X54000000Y-86500000D03*
%TO.P,K1,5*%
%TO.N,/Line1_in*%
X57750000Y-104000000D03*
%TD*%
D11*
%TO.P,J3,2,2*%
%TO.N,/Line2_in*%
X81390000Y-104500000D03*
D12*
%TO.P,J3,1,1*%
%TO.N,/Line2_out*%
X76390000Y-104500000D03*
%TD*%
D11*
%TO.P,J2,2,2*%
%TO.N,/Line1_out*%
X67500000Y-104500000D03*
D12*
%TO.P,J2,1,1*%
%TO.N,/Line1_in*%
X62500000Y-104500000D03*
%TD*%
D13*
%TO.P,PS1,1,VAC_IN(L)*%
%TO.N,/Line2_in*%
X81390000Y-95390000D03*
D14*
%TO.P,PS1,2,-VOUT*%
%TO.N,GND*%
X78850000Y-72530000D03*
%TO.P,PS1,3,+VOUT*%
%TO.N,+5VD*%
X63610000Y-72530000D03*
%TO.P,PS1,4,VAC_IN(N)*%
%TO.N,/Line1_in*%
X63610000Y-95390000D03*
%TD*%
D15*
%TO.P,BT1,NEG,-*%
%TO.N,GND*%
X110800000Y-99600000D03*
%TO.P,BT1,POS,+*%
%TO.N,Net-(BT1-PadPOS)*%
X107300000Y-88900000D03*
%TD*%
D16*
%TO.P,D1,1,A*%
%TO.N,/Reset*%
X51150000Y-84300000D03*
%TO.P,D1,2,K*%
%TO.N,+5VD*%
X53250000Y-84300000D03*
%TD*%
%TO.P,D2,1,A*%
%TO.N,/Set*%
X94050000Y-84600000D03*
%TO.P,D2,2,K*%
%TO.N,+5VD*%
X91950000Y-84600000D03*
%TD*%
D17*
%TO.P,Q1,1,G*%
%TO.N,/RLY_R*%
X82850000Y-83900000D03*
%TO.P,Q1,2,S*%
%TO.N,GND*%
X84750000Y-83900000D03*
%TO.P,Q1,3,D*%
%TO.N,/Reset*%
X83800000Y-85900000D03*
%TD*%
%TO.P,Q2,1,G*%
%TO.N,/RLY_S*%
X60850000Y-83900000D03*
%TO.P,Q2,2,S*%
%TO.N,GND*%
X62750000Y-83900000D03*
%TO.P,Q2,3,D*%
%TO.N,/Set*%
X61800000Y-85900000D03*
%TD*%
D18*
%TO.P,R1,1*%
%TO.N,GND*%
X79287500Y-83900000D03*
%TO.P,R1,2*%
%TO.N,/RLY_R*%
X81112500Y-83900000D03*
%TD*%
D19*
%TO.P,R3,1*%
%TO.N,+3V3*%
X102939300Y-85819200D03*
%TO.P,R3,2*%
%TO.N,/GPIO3(SCL1)*%
X101114300Y-85819200D03*
%TD*%
%TO.P,R4,1*%
%TO.N,+3V3*%
X102939300Y-84193600D03*
%TO.P,R4,2*%
%TO.N,/GPIO2(SDA1)*%
X101114300Y-84193600D03*
%TD*%
D20*
%TO.P,U1,1*%
%TO.N,N/C*%
X93900000Y-80800000D03*
%TO.P,U1,2,SCL*%
%TO.N,/GPIO3(SCL1)*%
X93900000Y-79530000D03*
%TO.P,U1,3,Fout*%
%TO.N,unconnected-(U1-Pad3)*%
X93900000Y-78260000D03*
%TO.P,U1,4*%
%TO.N,N/C*%
X93900000Y-76990000D03*
%TO.P,U1,5,VBAT*%
%TO.N,+BATT*%
X93900000Y-75720000D03*
%TO.P,U1,6,Vdd*%
%TO.N,+3V3*%
X93900000Y-74450000D03*
%TO.P,U1,7,FOE*%
%TO.N,GND*%
X93900000Y-73180000D03*
%TO.P,U1,8*%
%TO.N,N/C*%
X100830000Y-73180000D03*
%TO.P,U1,9*%
X100830000Y-74450000D03*
%TO.P,U1,10,~{INT}*%
%TO.N,/~{RTC_INT}*%
X100830000Y-75720000D03*
%TO.P,U1,11,GND*%
%TO.N,GND*%
X100830000Y-76990000D03*
%TO.P,U1,12*%
%TO.N,N/C*%
X100830000Y-78260000D03*
%TO.P,U1,13,SDA*%
%TO.N,/GPIO2(SDA1)*%
X100830000Y-79530000D03*
%TO.P,U1,14*%
%TO.N,N/C*%
X100830000Y-80800000D03*
%TD*%
D21*
%TO.P,J4,1,Pin_1*%
%TO.N,+3V3*%
X96630000Y-67770000D03*
D22*
%TO.P,J4,2,Pin_2*%
%TO.N,+5VD*%
X96630000Y-65230000D03*
%TO.P,J4,3,Pin_3*%
%TO.N,/GPIO2(SDA1)*%
X94090000Y-67770000D03*
%TO.P,J4,4,Pin_4*%
%TO.N,+5VD*%
X94090000Y-65230000D03*
%TO.P,J4,5,Pin_5*%
%TO.N,/GPIO3(SCL1)*%
X91550000Y-67770000D03*
%TO.P,J4,6,Pin_6*%
%TO.N,GND*%
X91550000Y-65230000D03*
%TO.P,J4,7,Pin_7*%
%TO.N,/GPIO4*%
X89010000Y-67770000D03*
%TO.P,J4,8,Pin_8*%
%TO.N,/RLY_R*%
X89010000Y-65230000D03*
%TO.P,J4,9,Pin_9*%
%TO.N,GND*%
X86470000Y-67770000D03*
%TO.P,J4,10,Pin_10*%
%TO.N,/~{BTN_RDY}*%
X86470000Y-65230000D03*
%TO.P,J4,11,Pin_11*%
%TO.N,/~{RTC_INT}*%
X83930000Y-67770000D03*
%TO.P,J4,12,Pin_12*%
%TO.N,/RLY_S*%
X83930000Y-65230000D03*
%TO.P,J4,13,Pin_13*%
%TO.N,unconnected-(J4-Pad13)*%
X81390000Y-67770000D03*
%TO.P,J4,14,Pin_14*%
%TO.N,GND*%
X81390000Y-65230000D03*
%TO.P,J4,15,Pin_15*%
%TO.N,unconnected-(J4-Pad15)*%
X78850000Y-67770000D03*
%TO.P,J4,16,Pin_16*%
%TO.N,/~{TEMP_ALERT}*%
X78850000Y-65230000D03*
%TO.P,J4,17,Pin_17*%
%TO.N,unconnected-(J4-Pad17)*%
X76310000Y-67770000D03*
%TO.P,J4,18,Pin_18*%
%TO.N,unconnected-(J4-Pad18)*%
X76310000Y-65230000D03*
%TO.P,J4,19,Pin_19*%
%TO.N,unconnected-(J4-Pad19)*%
X73770000Y-67770000D03*
%TO.P,J4,20,Pin_20*%
%TO.N,GND*%
X73770000Y-65230000D03*
%TO.P,J4,21,Pin_21*%
%TO.N,unconnected-(J4-Pad21)*%
X71230000Y-67770000D03*
%TO.P,J4,22,Pin_22*%
%TO.N,unconnected-(J4-Pad22)*%
X71230000Y-65230000D03*
%TO.P,J4,23,Pin_23*%
%TO.N,unconnected-(J4-Pad23)*%
X68690000Y-67770000D03*
%TO.P,J4,24,Pin_24*%
%TO.N,unconnected-(J4-Pad24)*%
X68690000Y-65230000D03*
%TO.P,J4,25,Pin_25*%
%TO.N,unconnected-(J4-Pad25)*%
X66150000Y-67770000D03*
%TO.P,J4,26,Pin_26*%
%TO.N,unconnected-(J4-Pad26)*%
X66150000Y-65230000D03*
%TO.P,J4,27,Pin_27*%
%TO.N,unconnected-(J4-Pad27)*%
X63610000Y-67770000D03*
%TO.P,J4,28,Pin_28*%
%TO.N,unconnected-(J4-Pad28)*%
X63610000Y-65230000D03*
%TO.P,J4,29,Pin_29*%
%TO.N,unconnected-(J4-Pad29)*%
X61070000Y-67770000D03*
%TO.P,J4,30,Pin_30*%
%TO.N,unconnected-(J4-Pad30)*%
X61070000Y-65230000D03*
%TO.P,J4,31,Pin_31*%
%TO.N,unconnected-(J4-Pad31)*%
X58530000Y-67770000D03*
%TO.P,J4,32,Pin_32*%
%TO.N,unconnected-(J4-Pad32)*%
X58530000Y-65230000D03*
%TO.P,J4,33,Pin_33*%
%TO.N,unconnected-(J4-Pad33)*%
X55990000Y-67770000D03*
%TO.P,J4,34,Pin_34*%
%TO.N,unconnected-(J4-Pad34)*%
X55990000Y-65230000D03*
%TO.P,J4,35,Pin_35*%
%TO.N,unconnected-(J4-Pad35)*%
X53450000Y-67770000D03*
%TO.P,J4,36,Pin_36*%
%TO.N,unconnected-(J4-Pad36)*%
X53450000Y-65230000D03*
%TO.P,J4,37,Pin_37*%
%TO.N,unconnected-(J4-Pad37)*%
X50910000Y-67770000D03*
%TO.P,J4,38,Pin_38*%
%TO.N,unconnected-(J4-Pad38)*%
X50910000Y-65230000D03*
%TO.P,J4,39,Pin_39*%
%TO.N,unconnected-(J4-Pad39)*%
X48370000Y-67770000D03*
%TO.P,J4,40,Pin_40*%
%TO.N,unconnected-(J4-Pad40)*%
X48370000Y-65230000D03*
%TD*%
D23*
%TO.P,C1,1*%
%TO.N,+5VD*%
X65737500Y-72700000D03*
%TO.P,C1,2*%
%TO.N,GND*%
X68862500Y-72700000D03*
%TD*%
D19*
%TO.P,R2,1*%
%TO.N,GND*%
X62712500Y-79500000D03*
%TO.P,R2,2*%
%TO.N,/RLY_S*%
X60887500Y-79500000D03*
%TD*%
D24*
%TO.P,R5,1*%
%TO.N,+3V3*%
X87599600Y-75991300D03*
%TO.P,R5,2*%
%TO.N,/~{RTC_INT}*%
X87599600Y-77816300D03*
%TD*%
D25*
%TO.P,D3,1,A*%
%TO.N,Net-(BT1-PadPOS)*%
X97750000Y-86850000D03*
%TO.P,D3,2,K*%
%TO.N,+BATT*%
X97750000Y-84750000D03*
%TD*%
D26*
%TO.P,C3,1*%
%TO.N,+5VD*%
X65737500Y-79100000D03*
%TO.P,C3,2*%
%TO.N,GND*%
X68862500Y-79100000D03*
%TD*%
%TO.P,C2,1*%
%TO.N,+5VD*%
X65737500Y-75900000D03*
%TO.P,C2,2*%
%TO.N,GND*%
X68862500Y-75900000D03*
%TD*%
D27*
%TO.N,/~{TEMP_ALERT}*%
X81224200Y-77919800D03*
%TO.N,GND*%
X89136575Y-76456073D03*
X104033400Y-85793800D03*
X99232800Y-78783400D03*
%TO.N,+3V3*%
X88945800Y-77437200D03*
X104058800Y-84498400D03*
%TO.N,/GPIO2(SDA1)*%
X92273200Y-76954600D03*
%TO.N,+3V3*%
X96630000Y-71327800D03*
%TO.N,/GPIO2(SDA1)*%
X99156600Y-79901000D03*
%TO.N,GND*%
X100172600Y-83126800D03*
%TO.N,/GPIO3(SCL1)*%
X95778400Y-79545400D03*
%TO.N,GND*%
X80400000Y-90200000D03*
X57700000Y-83000000D03*
X62600000Y-71600000D03*
X80400000Y-87400000D03*
X53000000Y-79900000D03*
X68900000Y-77500000D03*
X96413400Y-74922600D03*
X102800000Y-77000000D03*
X59700000Y-81300000D03*
X83600000Y-75750000D03*
X85900000Y-83900000D03*
X68900000Y-71100000D03*
X87800000Y-72700000D03*
X83600000Y-72500000D03*
X63800000Y-83900000D03*
X82200000Y-79800000D03*
X87400000Y-82900000D03*
X68900000Y-74300000D03*
X90999500Y-70649500D03*
X63000000Y-73750000D03*
X62700000Y-78400000D03*
X44300000Y-79700000D03*
X93400000Y-72300000D03*
X79200000Y-85000000D03*
X59800000Y-73700000D03*
%TO.N,+5VD*%
X58800000Y-83900000D03*
X58800000Y-73700000D03*
X90200000Y-69800000D03*
%TO.N,/Set*%
X81500000Y-89500000D03*
X81500000Y-86500000D03*
%TO.N,/~{RTC_INT}*%
X85516800Y-75735400D03*
X87850000Y-79350000D03*
X95780000Y-75720000D03*
%TO.N,/RLY_R*%
X84500000Y-71400000D03*
X87834999Y-71400000D03*
%TO.N,/RLY_S*%
X83050000Y-80750000D03*
X60850000Y-80750000D03*
%TO.N,+3V3*%
X87850000Y-73900000D03*
%TO.N,/~{BTN_RDY}*%
X86470000Y-82100000D03*
X51550000Y-75500000D03*
X51550000Y-82100000D03*
%TO.N,/GPIO4*%
X89010000Y-74690000D03*
%TD*%
D28*
%TO.N,+3V3*%
X104058800Y-84498400D02*
X102964700Y-84498400D01*
X102964700Y-84498400D02*
X102964700Y-85895400D01*
X88945800Y-77433300D02*
X87850000Y-76337500D01*
X88945800Y-77437200D02*
X88945800Y-77433300D01*
X87850000Y-76337500D02*
X87850000Y-73900000D01*
D29*
%TO.N,+5VD*%
X90200000Y-77757800D02*
X90200000Y-69800000D01*
X91000000Y-86500000D02*
X89100000Y-84600000D01*
X89100000Y-84600000D02*
X89100000Y-78857800D01*
X89100000Y-78857800D02*
X90200000Y-77757800D01*
D28*
%TO.N,/~{RTC_INT}*%
X83930000Y-69221000D02*
X83930000Y-67770000D01*
X85516800Y-70807800D02*
X83930000Y-69221000D01*
X85516800Y-75735400D02*
X85516800Y-70807800D01*
%TO.N,/~{TEMP_ALERT}*%
X80106600Y-66486600D02*
X78850000Y-65230000D01*
X80106600Y-69233000D02*
X80106600Y-66486600D01*
X81224200Y-70350600D02*
X80106600Y-69233000D01*
X81224200Y-77919800D02*
X81224200Y-70350600D01*
%TO.N,/GPIO2(SDA1)*%
X99740800Y-81907600D02*
X99156600Y-81323400D01*
X100375800Y-81907600D02*
X99740800Y-81907600D01*
X101114300Y-82646100D02*
X100375800Y-81907600D01*
X99156600Y-81323400D02*
X99156600Y-79901000D01*
X101114300Y-84193600D02*
X101114300Y-82646100D01*
%TO.N,/GPIO3(SCL1)*%
X95778400Y-84371400D02*
X95778400Y-79545400D01*
X97302400Y-85895400D02*
X95778400Y-84371400D01*
X101139700Y-85895400D02*
X97302400Y-85895400D01*
%TO.N,/GPIO2(SDA1)*%
X92273200Y-75583000D02*
X92273200Y-76954600D01*
X92273200Y-69586800D02*
X92273200Y-75583000D01*
X94090000Y-67770000D02*
X92273200Y-69586800D01*
%TO.N,/GPIO3(SCL1)*%
X93220000Y-79530000D02*
X93900000Y-79530000D01*
X91511200Y-74973400D02*
X91511200Y-77821200D01*
X91511200Y-77821200D02*
X93220000Y-79530000D01*
X91728912Y-74755688D02*
X91511200Y-74973400D01*
X91550000Y-67770000D02*
X91550000Y-69983000D01*
X91550000Y-69983000D02*
X91728912Y-70161912D01*
X91728912Y-70161912D02*
X91728912Y-74755688D01*
%TO.N,+3V3*%
X96630000Y-71327800D02*
X96630000Y-67770000D01*
%TO.N,/GPIO2(SDA1)*%
X100459000Y-79901000D02*
X100830000Y-79530000D01*
X99156600Y-79901000D02*
X100459000Y-79901000D01*
%TO.N,/GPIO3(SCL1)*%
X93915400Y-79545400D02*
X93900000Y-79530000D01*
X95778400Y-79545400D02*
X93915400Y-79545400D01*
%TO.N,+3V3*%
X96630000Y-72955000D02*
X96630000Y-71327800D01*
X95135000Y-74450000D02*
X96630000Y-72955000D01*
X93900000Y-74450000D02*
X95135000Y-74450000D01*
%TO.N,GND*%
X93900000Y-72800000D02*
X93400000Y-72300000D01*
X93900000Y-73180000D02*
X93900000Y-72800000D01*
X68900000Y-71100000D02*
X68900000Y-72662500D01*
X68900000Y-77500000D02*
X68900000Y-79062500D01*
X68900000Y-79062500D02*
X68862500Y-79100000D01*
X79287500Y-83900000D02*
X79287500Y-84912500D01*
X102800000Y-77000000D02*
X100840000Y-77000000D01*
X68900000Y-72662500D02*
X68862500Y-72700000D01*
X62712500Y-78412500D02*
X62700000Y-78400000D01*
X62712500Y-79500000D02*
X62712500Y-78412500D01*
X100840000Y-77000000D02*
X100830000Y-76990000D01*
D29*
X62750000Y-83900000D02*
X63800000Y-83900000D01*
X84750000Y-83900000D02*
X85900000Y-83900000D01*
D28*
X68900000Y-74300000D02*
X68900000Y-75862500D01*
X79287500Y-84912500D02*
X79200000Y-85000000D01*
%TO.N,+BATT*%
X94505002Y-75720000D02*
X93900000Y-75720000D01*
X96600000Y-77814998D02*
X96600000Y-83600000D01*
X96600000Y-77814998D02*
X94505002Y-75720000D01*
X96600000Y-83600000D02*
X97750000Y-84750000D01*
D30*
%TO.N,+5VD*%
X63610000Y-72530000D02*
X65567500Y-72530000D01*
D28*
X65567500Y-72530000D02*
X65737500Y-72700000D01*
D30*
X65737500Y-75800000D02*
X65737500Y-72700000D01*
D29*
X91000000Y-85550000D02*
X91950000Y-84600000D01*
D30*
X65737500Y-75900000D02*
X65737500Y-79100000D01*
D29*
X53250000Y-85750000D02*
X54000000Y-86500000D01*
X58800000Y-73700000D02*
X58800000Y-83900000D01*
X91000000Y-86500000D02*
X91000000Y-85550000D01*
X53250000Y-84300000D02*
X53250000Y-85750000D01*
D28*
%TO.N,/Set*%
X58350000Y-85900000D02*
X57750000Y-86500000D01*
D29*
X94050000Y-85800000D02*
X94750000Y-86500000D01*
X81500000Y-86500000D02*
X81500000Y-89500000D01*
X61800000Y-85900000D02*
X58350000Y-85900000D01*
X94050000Y-84600000D02*
X94050000Y-85800000D01*
%TO.N,/Reset*%
X83800000Y-85900000D02*
X86650000Y-85900000D01*
X50250000Y-85200000D02*
X51150000Y-84300000D01*
X50250000Y-86500000D02*
X50250000Y-85200000D01*
D28*
X86650000Y-85900000D02*
X87250000Y-86500000D01*
%TO.N,/~{RTC_INT}*%
X87850000Y-78162500D02*
X87850000Y-79350000D01*
X95780000Y-75720000D02*
X100830000Y-75720000D01*
%TO.N,/RLY_R*%
X84500000Y-71400000D02*
X84500000Y-82250000D01*
X87834999Y-66405001D02*
X89010000Y-65230000D01*
X81112500Y-83900000D02*
X82850000Y-83900000D01*
X87834999Y-71400000D02*
X87834999Y-66405001D01*
X84500000Y-82250000D02*
X82850000Y-83900000D01*
%TO.N,/RLY_S*%
X60887500Y-80712500D02*
X60850000Y-80750000D01*
X83050000Y-79576998D02*
X83050000Y-80750000D01*
X82754999Y-66405001D02*
X82754999Y-79281997D01*
X60850000Y-83900000D02*
X60850000Y-80750000D01*
X82754999Y-79281997D02*
X83050000Y-79576998D01*
X60887500Y-79500000D02*
X60887500Y-80712500D01*
X83930000Y-65230000D02*
X82754999Y-66405001D01*
%TO.N,/~{BTN_RDY}*%
X86470000Y-65230000D02*
X85294999Y-66405001D01*
X85294999Y-69000000D02*
X86470000Y-70175001D01*
X85294999Y-66405001D02*
X85294999Y-69000000D01*
X86470000Y-70175001D02*
X86470000Y-75821999D01*
X86470000Y-75821999D02*
X86470000Y-82100000D01*
X51550000Y-82100000D02*
X51550000Y-75500000D01*
%TO.N,/GPIO4*%
X89010000Y-67770000D02*
X89010000Y-74690000D01*
%TO.N,Net-(BT1-PadPOS)*%
X105100000Y-87000000D02*
X97900000Y-87000000D01*
X97900000Y-87000000D02*
X97750000Y-86850000D01*
X107300000Y-89200000D02*
X105100000Y-87000000D01*
%TD*%
M02*
